%TF.GenerationSoftware,KiCad,Pcbnew,8.0.6*%
%TF.CreationDate,2025-01-12T15:08:08+00:00*%
%TF.ProjectId,smart-fan,736d6172-742d-4666-916e-2e6b69636164,rev?*%
%TF.SameCoordinates,Original*%
%TF.FileFunction,Soldermask,Bot*%
%TF.FilePolarity,Negative*%
%FSLAX46Y46*%
G04 Gerber Fmt 4.6, Leading zero omitted, Abs format (unit mm)*
G04 Created by KiCad (PCBNEW 8.0.6) date 2025-01-12 15:08:08*
%MOMM*%
%LPD*%
G01*
G04 APERTURE LIST*
G04 Aperture macros list*
%AMRoundRect*
0 Rectangle with rounded corners*
0 $1 Rounding radius*
0 $2 $3 $4 $5 $6 $7 $8 $9 X,Y pos of 4 corners*
0 Add a 4 corners polygon primitive as box body*
4,1,4,$2,$3,$4,$5,$6,$7,$8,$9,$2,$3,0*
0 Add four circle primitives for the rounded corners*
1,1,$1+$1,$2,$3*
1,1,$1+$1,$4,$5*
1,1,$1+$1,$6,$7*
1,1,$1+$1,$8,$9*
0 Add four rect primitives between the rounded corners*
20,1,$1+$1,$2,$3,$4,$5,0*
20,1,$1+$1,$4,$5,$6,$7,0*
20,1,$1+$1,$6,$7,$8,$9,0*
20,1,$1+$1,$8,$9,$2,$3,0*%
G04 Aperture macros list end*
%ADD10R,1.800000X1.800000*%
%ADD11C,1.800000*%
%ADD12C,2.000000*%
%ADD13RoundRect,0.250000X0.600000X0.725000X-0.600000X0.725000X-0.600000X-0.725000X0.600000X-0.725000X0*%
%ADD14O,1.700000X1.950000*%
%ADD15R,1.700000X1.700000*%
%ADD16O,1.700000X1.700000*%
%ADD17RoundRect,0.250200X-0.649800X-0.649800X0.649800X-0.649800X0.649800X0.649800X-0.649800X0.649800X0*%
G04 APERTURE END LIST*
D10*
%TO.C,LED10*%
X179917136Y-70357864D03*
D11*
X177377136Y-70357864D03*
%TD*%
D10*
%TO.C,LED9*%
X173917136Y-83857864D03*
D11*
X171377136Y-83857864D03*
%TD*%
D10*
%TO.C,LED8*%
X167417136Y-97357864D03*
D11*
X164877136Y-97357864D03*
%TD*%
D10*
%TO.C,LED7*%
X160417136Y-70357864D03*
D11*
X157877136Y-70357864D03*
%TD*%
D10*
%TO.C,LED6*%
X153417136Y-83857864D03*
D11*
X150877136Y-83857864D03*
%TD*%
D10*
%TO.C,LED5*%
X147417136Y-96357864D03*
D11*
X144877136Y-96357864D03*
%TD*%
D10*
%TO.C,LED4*%
X139917136Y-70357864D03*
D11*
X137377136Y-70357864D03*
%TD*%
D10*
%TO.C,LED3*%
X135917136Y-79857864D03*
D11*
X133377136Y-79857864D03*
%TD*%
D10*
%TO.C,LED2*%
X131152136Y-89357864D03*
D11*
X128612136Y-89357864D03*
%TD*%
D10*
%TO.C,LED1*%
X126652136Y-97357864D03*
D11*
X124112136Y-97357864D03*
%TD*%
D12*
%TO.C,KEY5*%
X155500000Y-110205765D03*
X162000000Y-110205765D03*
X155500000Y-114705765D03*
X162000000Y-114705765D03*
%TD*%
%TO.C,KEY4*%
X135250000Y-110205765D03*
X141750000Y-110205765D03*
X135250000Y-114705765D03*
X141750000Y-114705765D03*
%TD*%
D13*
%TO.C,J1*%
X123000000Y-60000000D03*
D14*
X120500000Y-60000000D03*
X118000000Y-60000000D03*
X115500000Y-60000000D03*
%TD*%
D12*
%TO.C,KEY2*%
X115250000Y-110250000D03*
X121750000Y-110250000D03*
X115250000Y-114750000D03*
X121750000Y-114750000D03*
%TD*%
%TO.C,KEY6*%
X175500000Y-110299494D03*
X182000000Y-110299494D03*
X175500000Y-114799494D03*
X182000000Y-114799494D03*
%TD*%
%TO.C,KEY3*%
X115250000Y-67250000D03*
X121750000Y-67250000D03*
X115250000Y-71750000D03*
X121750000Y-71750000D03*
%TD*%
D15*
%TO.C,J3*%
X107000000Y-107000000D03*
D16*
X104460000Y-107000000D03*
%TD*%
D17*
%TO.C,U3*%
X145920000Y-127000000D03*
D11*
X148460000Y-127000000D03*
X151000000Y-127000000D03*
%TD*%
D12*
%TO.C,TP3*%
X179142136Y-78357864D03*
%TD*%
%TO.C,TP1*%
X185142136Y-78357864D03*
%TD*%
M02*
