%TF.GenerationSoftware,KiCad,Pcbnew,8.0.6*%
%TF.CreationDate,2025-01-12T15:08:07+00:00*%
%TF.ProjectId,smart-fan,736d6172-742d-4666-916e-2e6b69636164,rev?*%
%TF.SameCoordinates,Original*%
%TF.FileFunction,Legend,Top*%
%TF.FilePolarity,Positive*%
%FSLAX46Y46*%
G04 Gerber Fmt 4.6, Leading zero omitted, Abs format (unit mm)*
G04 Created by KiCad (PCBNEW 8.0.6) date 2025-01-12 15:08:07*
%MOMM*%
%LPD*%
G01*
G04 APERTURE LIST*
%ADD10C,0.200000*%
%ADD11C,0.100000*%
%ADD12C,0.150000*%
%ADD13C,0.120000*%
G04 APERTURE END LIST*
D10*
G36*
X160675632Y-120620711D02*
G01*
X160675632Y-121426712D01*
X160489488Y-121353439D01*
X160270461Y-121275587D01*
X160066604Y-121213000D01*
X159842000Y-121158045D01*
X159639241Y-121125072D01*
X159458325Y-121114081D01*
X159252841Y-121127732D01*
X159057626Y-121181012D01*
X159047997Y-121185400D01*
X158905115Y-121318757D01*
X158895590Y-121374933D01*
X158998279Y-121542719D01*
X159005011Y-121547857D01*
X159177631Y-121640621D01*
X159369514Y-121721069D01*
X159540391Y-121786238D01*
X159742685Y-121863052D01*
X159923608Y-121937180D01*
X160119708Y-122026061D01*
X160221340Y-122077375D01*
X160389005Y-122182995D01*
X160540046Y-122314474D01*
X160662931Y-122456440D01*
X160768614Y-122639711D01*
X160826621Y-122832968D01*
X160847831Y-123028598D01*
X160848556Y-123074863D01*
X160829155Y-123297858D01*
X160770951Y-123500097D01*
X160673946Y-123681579D01*
X160538138Y-123842304D01*
X160443112Y-123924828D01*
X160253483Y-124047786D01*
X160071445Y-124129142D01*
X159871411Y-124188310D01*
X159653378Y-124225290D01*
X159457936Y-124239157D01*
X159376260Y-124240390D01*
X159153875Y-124230944D01*
X158933684Y-124202608D01*
X158715688Y-124155382D01*
X158499886Y-124089264D01*
X158286278Y-124004256D01*
X158074865Y-123900358D01*
X157990914Y-123853509D01*
X157990914Y-122989866D01*
X158177821Y-123096417D01*
X158353615Y-123187459D01*
X158538099Y-123271342D01*
X158671863Y-123323014D01*
X158860923Y-123378140D01*
X159056851Y-123412849D01*
X159259649Y-123427141D01*
X159301033Y-123427549D01*
X159520683Y-123412730D01*
X159723817Y-123350124D01*
X159855937Y-123190435D01*
X159864745Y-123117850D01*
X159778726Y-122942178D01*
X159752394Y-122918547D01*
X159577083Y-122816237D01*
X159382452Y-122732050D01*
X159209198Y-122665512D01*
X159005438Y-122587293D01*
X158824027Y-122512860D01*
X158628690Y-122425142D01*
X158528249Y-122375351D01*
X158349554Y-122262374D01*
X158202648Y-122131535D01*
X158094473Y-122005079D01*
X157990459Y-121823131D01*
X157933367Y-121629873D01*
X157912493Y-121433265D01*
X157911780Y-121386656D01*
X157930853Y-121182775D01*
X157999364Y-120971749D01*
X158117699Y-120784170D01*
X158262115Y-120639273D01*
X158310384Y-120601171D01*
X158497629Y-120484304D01*
X158678591Y-120406978D01*
X158878442Y-120350741D01*
X159097185Y-120315593D01*
X159293900Y-120302413D01*
X159376260Y-120301241D01*
X159609473Y-120312472D01*
X159807491Y-120338991D01*
X160008849Y-120381108D01*
X160213545Y-120438825D01*
X160421581Y-120512141D01*
X160632956Y-120601056D01*
X160675632Y-120620711D01*
G37*
G36*
X163514711Y-121767675D02*
G01*
X164748625Y-120363767D01*
X165581005Y-120363767D01*
X165581005Y-124177864D01*
X164624550Y-124177864D01*
X164624550Y-121786238D01*
X163588960Y-122989866D01*
X163443392Y-122989866D01*
X162407802Y-121786238D01*
X162407802Y-124177864D01*
X161451347Y-124177864D01*
X161451347Y-120363767D01*
X162283727Y-120363767D01*
X163514711Y-121767675D01*
G37*
G36*
X170350579Y-124177864D02*
G01*
X169322805Y-124177864D01*
X169007244Y-123427549D01*
X167289728Y-123427549D01*
X167004452Y-124177864D01*
X165990356Y-124177864D01*
X166573480Y-122739762D01*
X167542764Y-122739762D01*
X168723922Y-122739762D01*
X168106476Y-121281143D01*
X167542764Y-122739762D01*
X166573480Y-122739762D01*
X167536902Y-120363767D01*
X168647718Y-120363767D01*
X170350579Y-124177864D01*
G37*
G36*
X172688083Y-120375067D02*
G01*
X172904987Y-120416815D01*
X173101883Y-120489323D01*
X173278771Y-120592593D01*
X173392868Y-120685191D01*
X173528769Y-120831884D01*
X173643212Y-121015448D01*
X173714058Y-121215987D01*
X173741306Y-121433500D01*
X173741647Y-121461883D01*
X173718463Y-121687014D01*
X173648911Y-121889064D01*
X173532991Y-122068033D01*
X173370703Y-122223921D01*
X173200043Y-122336196D01*
X173082191Y-122395868D01*
X173261099Y-122515947D01*
X173399829Y-122675896D01*
X173518012Y-122862434D01*
X173616931Y-123056927D01*
X173633203Y-123092448D01*
X173713961Y-123270674D01*
X173809673Y-123480326D01*
X173904081Y-123685375D01*
X173997183Y-123885823D01*
X174088980Y-124081667D01*
X174134390Y-124177864D01*
X173082191Y-124177864D01*
X172992340Y-123987491D01*
X172910763Y-123806996D01*
X172825158Y-123613900D01*
X172755883Y-123455882D01*
X172671356Y-123269208D01*
X172578558Y-123085194D01*
X172468451Y-122902050D01*
X172358256Y-122769071D01*
X172186309Y-122653300D01*
X172002638Y-122614709D01*
X171728109Y-122614709D01*
X171728109Y-124177864D01*
X170771654Y-124177864D01*
X170771654Y-121926921D01*
X171728109Y-121926921D01*
X172233203Y-121926921D01*
X172438024Y-121901805D01*
X172616176Y-121812616D01*
X172730722Y-121653110D01*
X172757837Y-121486307D01*
X172714637Y-121276149D01*
X172565306Y-121123306D01*
X172369041Y-121062169D01*
X172211710Y-121051555D01*
X171728109Y-121051555D01*
X171728109Y-121926921D01*
X170771654Y-121926921D01*
X170771654Y-120363767D01*
X172486239Y-120363767D01*
X172688083Y-120375067D01*
G37*
G36*
X177854697Y-120363767D02*
G01*
X177854697Y-121051555D01*
X176464466Y-121051555D01*
X176464466Y-124177864D01*
X175508011Y-124177864D01*
X175508011Y-121051555D01*
X174117781Y-121051555D01*
X174117781Y-120363767D01*
X177854697Y-120363767D01*
G37*
G36*
X182445485Y-120363767D02*
G01*
X182445485Y-121051555D01*
X180759232Y-121051555D01*
X180759232Y-121926921D01*
X182445485Y-121926921D01*
X182445485Y-122614709D01*
X180759232Y-122614709D01*
X180759232Y-124177864D01*
X179802778Y-124177864D01*
X179802778Y-120363767D01*
X182445485Y-120363767D01*
G37*
G36*
X186963001Y-124177864D02*
G01*
X185935227Y-124177864D01*
X185619665Y-123427549D01*
X183902149Y-123427549D01*
X183616874Y-124177864D01*
X182602778Y-124177864D01*
X183185901Y-122739762D01*
X184155185Y-122739762D01*
X185336343Y-122739762D01*
X184718898Y-121281143D01*
X184155185Y-122739762D01*
X183185901Y-122739762D01*
X184149323Y-120363767D01*
X185260140Y-120363767D01*
X186963001Y-124177864D01*
G37*
G36*
X191103406Y-120363767D02*
G01*
X191103406Y-124177864D01*
X190298381Y-124177864D01*
X188177376Y-121734458D01*
X188177376Y-124177864D01*
X187220921Y-124177864D01*
X187220921Y-120363767D01*
X188098242Y-120363767D01*
X190147928Y-122695798D01*
X190147928Y-120363767D01*
X191103406Y-120363767D01*
G37*
D11*
X115372419Y-64184836D02*
X115372419Y-63613408D01*
X116372419Y-63899122D02*
X115372419Y-63899122D01*
X115372419Y-63375312D02*
X116372419Y-62708646D01*
X115372419Y-62708646D02*
X116372419Y-63375312D01*
X119872419Y-65327693D02*
X120872419Y-64994360D01*
X120872419Y-64994360D02*
X119872419Y-64661027D01*
X120872419Y-64327693D02*
X119872419Y-64327693D01*
X119872419Y-64327693D02*
X119872419Y-64089598D01*
X119872419Y-64089598D02*
X119920038Y-63946741D01*
X119920038Y-63946741D02*
X120015276Y-63851503D01*
X120015276Y-63851503D02*
X120110514Y-63803884D01*
X120110514Y-63803884D02*
X120300990Y-63756265D01*
X120300990Y-63756265D02*
X120443847Y-63756265D01*
X120443847Y-63756265D02*
X120634323Y-63803884D01*
X120634323Y-63803884D02*
X120729561Y-63851503D01*
X120729561Y-63851503D02*
X120824800Y-63946741D01*
X120824800Y-63946741D02*
X120872419Y-64089598D01*
X120872419Y-64089598D02*
X120872419Y-64327693D01*
X120872419Y-63327693D02*
X119872419Y-63327693D01*
X119872419Y-63327693D02*
X119872419Y-63089598D01*
X119872419Y-63089598D02*
X119920038Y-62946741D01*
X119920038Y-62946741D02*
X120015276Y-62851503D01*
X120015276Y-62851503D02*
X120110514Y-62803884D01*
X120110514Y-62803884D02*
X120300990Y-62756265D01*
X120300990Y-62756265D02*
X120443847Y-62756265D01*
X120443847Y-62756265D02*
X120634323Y-62803884D01*
X120634323Y-62803884D02*
X120729561Y-62851503D01*
X120729561Y-62851503D02*
X120824800Y-62946741D01*
X120824800Y-62946741D02*
X120872419Y-63089598D01*
X120872419Y-63089598D02*
X120872419Y-63327693D01*
X118745067Y-63708646D02*
X118268876Y-64041979D01*
X118745067Y-64280074D02*
X117745067Y-64280074D01*
X117745067Y-64280074D02*
X117745067Y-63899122D01*
X117745067Y-63899122D02*
X117792686Y-63803884D01*
X117792686Y-63803884D02*
X117840305Y-63756265D01*
X117840305Y-63756265D02*
X117935543Y-63708646D01*
X117935543Y-63708646D02*
X118078400Y-63708646D01*
X118078400Y-63708646D02*
X118173638Y-63756265D01*
X118173638Y-63756265D02*
X118221257Y-63803884D01*
X118221257Y-63803884D02*
X118268876Y-63899122D01*
X118268876Y-63899122D02*
X118268876Y-64280074D01*
X117745067Y-63375312D02*
X118745067Y-62708646D01*
X117745067Y-62708646D02*
X118745067Y-63375312D01*
X122420038Y-64851503D02*
X122372419Y-64946741D01*
X122372419Y-64946741D02*
X122372419Y-65089598D01*
X122372419Y-65089598D02*
X122420038Y-65232455D01*
X122420038Y-65232455D02*
X122515276Y-65327693D01*
X122515276Y-65327693D02*
X122610514Y-65375312D01*
X122610514Y-65375312D02*
X122800990Y-65422931D01*
X122800990Y-65422931D02*
X122943847Y-65422931D01*
X122943847Y-65422931D02*
X123134323Y-65375312D01*
X123134323Y-65375312D02*
X123229561Y-65327693D01*
X123229561Y-65327693D02*
X123324800Y-65232455D01*
X123324800Y-65232455D02*
X123372419Y-65089598D01*
X123372419Y-65089598D02*
X123372419Y-64994360D01*
X123372419Y-64994360D02*
X123324800Y-64851503D01*
X123324800Y-64851503D02*
X123277180Y-64803884D01*
X123277180Y-64803884D02*
X122943847Y-64803884D01*
X122943847Y-64803884D02*
X122943847Y-64994360D01*
X123372419Y-64375312D02*
X122372419Y-64375312D01*
X122372419Y-64375312D02*
X123372419Y-63803884D01*
X123372419Y-63803884D02*
X122372419Y-63803884D01*
X123372419Y-63327693D02*
X122372419Y-63327693D01*
X122372419Y-63327693D02*
X122372419Y-63089598D01*
X122372419Y-63089598D02*
X122420038Y-62946741D01*
X122420038Y-62946741D02*
X122515276Y-62851503D01*
X122515276Y-62851503D02*
X122610514Y-62803884D01*
X122610514Y-62803884D02*
X122800990Y-62756265D01*
X122800990Y-62756265D02*
X122943847Y-62756265D01*
X122943847Y-62756265D02*
X123134323Y-62803884D01*
X123134323Y-62803884D02*
X123229561Y-62851503D01*
X123229561Y-62851503D02*
X123324800Y-62946741D01*
X123324800Y-62946741D02*
X123372419Y-63089598D01*
X123372419Y-63089598D02*
X123372419Y-63327693D01*
D12*
X102997323Y-82280246D02*
X102997323Y-83089769D01*
X102997323Y-83089769D02*
X103044942Y-83185007D01*
X103044942Y-83185007D02*
X103092561Y-83232627D01*
X103092561Y-83232627D02*
X103187799Y-83280246D01*
X103187799Y-83280246D02*
X103378275Y-83280246D01*
X103378275Y-83280246D02*
X103473513Y-83232627D01*
X103473513Y-83232627D02*
X103521132Y-83185007D01*
X103521132Y-83185007D02*
X103568751Y-83089769D01*
X103568751Y-83089769D02*
X103568751Y-82280246D01*
X104568751Y-83280246D02*
X103997323Y-83280246D01*
X104283037Y-83280246D02*
X104283037Y-82280246D01*
X104283037Y-82280246D02*
X104187799Y-82423103D01*
X104187799Y-82423103D02*
X104092561Y-82518341D01*
X104092561Y-82518341D02*
X103997323Y-82565960D01*
X177051897Y-73772683D02*
X176575707Y-73772683D01*
X176575707Y-73772683D02*
X176575707Y-72772683D01*
X177385231Y-73248873D02*
X177718564Y-73248873D01*
X177861421Y-73772683D02*
X177385231Y-73772683D01*
X177385231Y-73772683D02*
X177385231Y-72772683D01*
X177385231Y-72772683D02*
X177861421Y-72772683D01*
X178289993Y-73772683D02*
X178289993Y-72772683D01*
X178289993Y-72772683D02*
X178528088Y-72772683D01*
X178528088Y-72772683D02*
X178670945Y-72820302D01*
X178670945Y-72820302D02*
X178766183Y-72915540D01*
X178766183Y-72915540D02*
X178813802Y-73010778D01*
X178813802Y-73010778D02*
X178861421Y-73201254D01*
X178861421Y-73201254D02*
X178861421Y-73344111D01*
X178861421Y-73344111D02*
X178813802Y-73534587D01*
X178813802Y-73534587D02*
X178766183Y-73629825D01*
X178766183Y-73629825D02*
X178670945Y-73725064D01*
X178670945Y-73725064D02*
X178528088Y-73772683D01*
X178528088Y-73772683D02*
X178289993Y-73772683D01*
X179813802Y-73772683D02*
X179242374Y-73772683D01*
X179528088Y-73772683D02*
X179528088Y-72772683D01*
X179528088Y-72772683D02*
X179432850Y-72915540D01*
X179432850Y-72915540D02*
X179337612Y-73010778D01*
X179337612Y-73010778D02*
X179242374Y-73058397D01*
X180432850Y-72772683D02*
X180528088Y-72772683D01*
X180528088Y-72772683D02*
X180623326Y-72820302D01*
X180623326Y-72820302D02*
X180670945Y-72867921D01*
X180670945Y-72867921D02*
X180718564Y-72963159D01*
X180718564Y-72963159D02*
X180766183Y-73153635D01*
X180766183Y-73153635D02*
X180766183Y-73391730D01*
X180766183Y-73391730D02*
X180718564Y-73582206D01*
X180718564Y-73582206D02*
X180670945Y-73677444D01*
X180670945Y-73677444D02*
X180623326Y-73725064D01*
X180623326Y-73725064D02*
X180528088Y-73772683D01*
X180528088Y-73772683D02*
X180432850Y-73772683D01*
X180432850Y-73772683D02*
X180337612Y-73725064D01*
X180337612Y-73725064D02*
X180289993Y-73677444D01*
X180289993Y-73677444D02*
X180242374Y-73582206D01*
X180242374Y-73582206D02*
X180194755Y-73391730D01*
X180194755Y-73391730D02*
X180194755Y-73153635D01*
X180194755Y-73153635D02*
X180242374Y-72963159D01*
X180242374Y-72963159D02*
X180289993Y-72867921D01*
X180289993Y-72867921D02*
X180337612Y-72820302D01*
X180337612Y-72820302D02*
X180432850Y-72772683D01*
X171528088Y-87272683D02*
X171051898Y-87272683D01*
X171051898Y-87272683D02*
X171051898Y-86272683D01*
X171861422Y-86748873D02*
X172194755Y-86748873D01*
X172337612Y-87272683D02*
X171861422Y-87272683D01*
X171861422Y-87272683D02*
X171861422Y-86272683D01*
X171861422Y-86272683D02*
X172337612Y-86272683D01*
X172766184Y-87272683D02*
X172766184Y-86272683D01*
X172766184Y-86272683D02*
X173004279Y-86272683D01*
X173004279Y-86272683D02*
X173147136Y-86320302D01*
X173147136Y-86320302D02*
X173242374Y-86415540D01*
X173242374Y-86415540D02*
X173289993Y-86510778D01*
X173289993Y-86510778D02*
X173337612Y-86701254D01*
X173337612Y-86701254D02*
X173337612Y-86844111D01*
X173337612Y-86844111D02*
X173289993Y-87034587D01*
X173289993Y-87034587D02*
X173242374Y-87129825D01*
X173242374Y-87129825D02*
X173147136Y-87225064D01*
X173147136Y-87225064D02*
X173004279Y-87272683D01*
X173004279Y-87272683D02*
X172766184Y-87272683D01*
X173813803Y-87272683D02*
X174004279Y-87272683D01*
X174004279Y-87272683D02*
X174099517Y-87225064D01*
X174099517Y-87225064D02*
X174147136Y-87177444D01*
X174147136Y-87177444D02*
X174242374Y-87034587D01*
X174242374Y-87034587D02*
X174289993Y-86844111D01*
X174289993Y-86844111D02*
X174289993Y-86463159D01*
X174289993Y-86463159D02*
X174242374Y-86367921D01*
X174242374Y-86367921D02*
X174194755Y-86320302D01*
X174194755Y-86320302D02*
X174099517Y-86272683D01*
X174099517Y-86272683D02*
X173909041Y-86272683D01*
X173909041Y-86272683D02*
X173813803Y-86320302D01*
X173813803Y-86320302D02*
X173766184Y-86367921D01*
X173766184Y-86367921D02*
X173718565Y-86463159D01*
X173718565Y-86463159D02*
X173718565Y-86701254D01*
X173718565Y-86701254D02*
X173766184Y-86796492D01*
X173766184Y-86796492D02*
X173813803Y-86844111D01*
X173813803Y-86844111D02*
X173909041Y-86891730D01*
X173909041Y-86891730D02*
X174099517Y-86891730D01*
X174099517Y-86891730D02*
X174194755Y-86844111D01*
X174194755Y-86844111D02*
X174242374Y-86796492D01*
X174242374Y-86796492D02*
X174289993Y-86701254D01*
X165028088Y-100772683D02*
X164551898Y-100772683D01*
X164551898Y-100772683D02*
X164551898Y-99772683D01*
X165361422Y-100248873D02*
X165694755Y-100248873D01*
X165837612Y-100772683D02*
X165361422Y-100772683D01*
X165361422Y-100772683D02*
X165361422Y-99772683D01*
X165361422Y-99772683D02*
X165837612Y-99772683D01*
X166266184Y-100772683D02*
X166266184Y-99772683D01*
X166266184Y-99772683D02*
X166504279Y-99772683D01*
X166504279Y-99772683D02*
X166647136Y-99820302D01*
X166647136Y-99820302D02*
X166742374Y-99915540D01*
X166742374Y-99915540D02*
X166789993Y-100010778D01*
X166789993Y-100010778D02*
X166837612Y-100201254D01*
X166837612Y-100201254D02*
X166837612Y-100344111D01*
X166837612Y-100344111D02*
X166789993Y-100534587D01*
X166789993Y-100534587D02*
X166742374Y-100629825D01*
X166742374Y-100629825D02*
X166647136Y-100725064D01*
X166647136Y-100725064D02*
X166504279Y-100772683D01*
X166504279Y-100772683D02*
X166266184Y-100772683D01*
X167409041Y-100201254D02*
X167313803Y-100153635D01*
X167313803Y-100153635D02*
X167266184Y-100106016D01*
X167266184Y-100106016D02*
X167218565Y-100010778D01*
X167218565Y-100010778D02*
X167218565Y-99963159D01*
X167218565Y-99963159D02*
X167266184Y-99867921D01*
X167266184Y-99867921D02*
X167313803Y-99820302D01*
X167313803Y-99820302D02*
X167409041Y-99772683D01*
X167409041Y-99772683D02*
X167599517Y-99772683D01*
X167599517Y-99772683D02*
X167694755Y-99820302D01*
X167694755Y-99820302D02*
X167742374Y-99867921D01*
X167742374Y-99867921D02*
X167789993Y-99963159D01*
X167789993Y-99963159D02*
X167789993Y-100010778D01*
X167789993Y-100010778D02*
X167742374Y-100106016D01*
X167742374Y-100106016D02*
X167694755Y-100153635D01*
X167694755Y-100153635D02*
X167599517Y-100201254D01*
X167599517Y-100201254D02*
X167409041Y-100201254D01*
X167409041Y-100201254D02*
X167313803Y-100248873D01*
X167313803Y-100248873D02*
X167266184Y-100296492D01*
X167266184Y-100296492D02*
X167218565Y-100391730D01*
X167218565Y-100391730D02*
X167218565Y-100582206D01*
X167218565Y-100582206D02*
X167266184Y-100677444D01*
X167266184Y-100677444D02*
X167313803Y-100725064D01*
X167313803Y-100725064D02*
X167409041Y-100772683D01*
X167409041Y-100772683D02*
X167599517Y-100772683D01*
X167599517Y-100772683D02*
X167694755Y-100725064D01*
X167694755Y-100725064D02*
X167742374Y-100677444D01*
X167742374Y-100677444D02*
X167789993Y-100582206D01*
X167789993Y-100582206D02*
X167789993Y-100391730D01*
X167789993Y-100391730D02*
X167742374Y-100296492D01*
X167742374Y-100296492D02*
X167694755Y-100248873D01*
X167694755Y-100248873D02*
X167599517Y-100201254D01*
X158028088Y-73772683D02*
X157551898Y-73772683D01*
X157551898Y-73772683D02*
X157551898Y-72772683D01*
X158361422Y-73248873D02*
X158694755Y-73248873D01*
X158837612Y-73772683D02*
X158361422Y-73772683D01*
X158361422Y-73772683D02*
X158361422Y-72772683D01*
X158361422Y-72772683D02*
X158837612Y-72772683D01*
X159266184Y-73772683D02*
X159266184Y-72772683D01*
X159266184Y-72772683D02*
X159504279Y-72772683D01*
X159504279Y-72772683D02*
X159647136Y-72820302D01*
X159647136Y-72820302D02*
X159742374Y-72915540D01*
X159742374Y-72915540D02*
X159789993Y-73010778D01*
X159789993Y-73010778D02*
X159837612Y-73201254D01*
X159837612Y-73201254D02*
X159837612Y-73344111D01*
X159837612Y-73344111D02*
X159789993Y-73534587D01*
X159789993Y-73534587D02*
X159742374Y-73629825D01*
X159742374Y-73629825D02*
X159647136Y-73725064D01*
X159647136Y-73725064D02*
X159504279Y-73772683D01*
X159504279Y-73772683D02*
X159266184Y-73772683D01*
X160170946Y-72772683D02*
X160837612Y-72772683D01*
X160837612Y-72772683D02*
X160409041Y-73772683D01*
X151028088Y-87272683D02*
X150551898Y-87272683D01*
X150551898Y-87272683D02*
X150551898Y-86272683D01*
X151361422Y-86748873D02*
X151694755Y-86748873D01*
X151837612Y-87272683D02*
X151361422Y-87272683D01*
X151361422Y-87272683D02*
X151361422Y-86272683D01*
X151361422Y-86272683D02*
X151837612Y-86272683D01*
X152266184Y-87272683D02*
X152266184Y-86272683D01*
X152266184Y-86272683D02*
X152504279Y-86272683D01*
X152504279Y-86272683D02*
X152647136Y-86320302D01*
X152647136Y-86320302D02*
X152742374Y-86415540D01*
X152742374Y-86415540D02*
X152789993Y-86510778D01*
X152789993Y-86510778D02*
X152837612Y-86701254D01*
X152837612Y-86701254D02*
X152837612Y-86844111D01*
X152837612Y-86844111D02*
X152789993Y-87034587D01*
X152789993Y-87034587D02*
X152742374Y-87129825D01*
X152742374Y-87129825D02*
X152647136Y-87225064D01*
X152647136Y-87225064D02*
X152504279Y-87272683D01*
X152504279Y-87272683D02*
X152266184Y-87272683D01*
X153694755Y-86272683D02*
X153504279Y-86272683D01*
X153504279Y-86272683D02*
X153409041Y-86320302D01*
X153409041Y-86320302D02*
X153361422Y-86367921D01*
X153361422Y-86367921D02*
X153266184Y-86510778D01*
X153266184Y-86510778D02*
X153218565Y-86701254D01*
X153218565Y-86701254D02*
X153218565Y-87082206D01*
X153218565Y-87082206D02*
X153266184Y-87177444D01*
X153266184Y-87177444D02*
X153313803Y-87225064D01*
X153313803Y-87225064D02*
X153409041Y-87272683D01*
X153409041Y-87272683D02*
X153599517Y-87272683D01*
X153599517Y-87272683D02*
X153694755Y-87225064D01*
X153694755Y-87225064D02*
X153742374Y-87177444D01*
X153742374Y-87177444D02*
X153789993Y-87082206D01*
X153789993Y-87082206D02*
X153789993Y-86844111D01*
X153789993Y-86844111D02*
X153742374Y-86748873D01*
X153742374Y-86748873D02*
X153694755Y-86701254D01*
X153694755Y-86701254D02*
X153599517Y-86653635D01*
X153599517Y-86653635D02*
X153409041Y-86653635D01*
X153409041Y-86653635D02*
X153313803Y-86701254D01*
X153313803Y-86701254D02*
X153266184Y-86748873D01*
X153266184Y-86748873D02*
X153218565Y-86844111D01*
X145028088Y-99772683D02*
X144551898Y-99772683D01*
X144551898Y-99772683D02*
X144551898Y-98772683D01*
X145361422Y-99248873D02*
X145694755Y-99248873D01*
X145837612Y-99772683D02*
X145361422Y-99772683D01*
X145361422Y-99772683D02*
X145361422Y-98772683D01*
X145361422Y-98772683D02*
X145837612Y-98772683D01*
X146266184Y-99772683D02*
X146266184Y-98772683D01*
X146266184Y-98772683D02*
X146504279Y-98772683D01*
X146504279Y-98772683D02*
X146647136Y-98820302D01*
X146647136Y-98820302D02*
X146742374Y-98915540D01*
X146742374Y-98915540D02*
X146789993Y-99010778D01*
X146789993Y-99010778D02*
X146837612Y-99201254D01*
X146837612Y-99201254D02*
X146837612Y-99344111D01*
X146837612Y-99344111D02*
X146789993Y-99534587D01*
X146789993Y-99534587D02*
X146742374Y-99629825D01*
X146742374Y-99629825D02*
X146647136Y-99725064D01*
X146647136Y-99725064D02*
X146504279Y-99772683D01*
X146504279Y-99772683D02*
X146266184Y-99772683D01*
X147742374Y-98772683D02*
X147266184Y-98772683D01*
X147266184Y-98772683D02*
X147218565Y-99248873D01*
X147218565Y-99248873D02*
X147266184Y-99201254D01*
X147266184Y-99201254D02*
X147361422Y-99153635D01*
X147361422Y-99153635D02*
X147599517Y-99153635D01*
X147599517Y-99153635D02*
X147694755Y-99201254D01*
X147694755Y-99201254D02*
X147742374Y-99248873D01*
X147742374Y-99248873D02*
X147789993Y-99344111D01*
X147789993Y-99344111D02*
X147789993Y-99582206D01*
X147789993Y-99582206D02*
X147742374Y-99677444D01*
X147742374Y-99677444D02*
X147694755Y-99725064D01*
X147694755Y-99725064D02*
X147599517Y-99772683D01*
X147599517Y-99772683D02*
X147361422Y-99772683D01*
X147361422Y-99772683D02*
X147266184Y-99725064D01*
X147266184Y-99725064D02*
X147218565Y-99677444D01*
X137528088Y-73772683D02*
X137051898Y-73772683D01*
X137051898Y-73772683D02*
X137051898Y-72772683D01*
X137861422Y-73248873D02*
X138194755Y-73248873D01*
X138337612Y-73772683D02*
X137861422Y-73772683D01*
X137861422Y-73772683D02*
X137861422Y-72772683D01*
X137861422Y-72772683D02*
X138337612Y-72772683D01*
X138766184Y-73772683D02*
X138766184Y-72772683D01*
X138766184Y-72772683D02*
X139004279Y-72772683D01*
X139004279Y-72772683D02*
X139147136Y-72820302D01*
X139147136Y-72820302D02*
X139242374Y-72915540D01*
X139242374Y-72915540D02*
X139289993Y-73010778D01*
X139289993Y-73010778D02*
X139337612Y-73201254D01*
X139337612Y-73201254D02*
X139337612Y-73344111D01*
X139337612Y-73344111D02*
X139289993Y-73534587D01*
X139289993Y-73534587D02*
X139242374Y-73629825D01*
X139242374Y-73629825D02*
X139147136Y-73725064D01*
X139147136Y-73725064D02*
X139004279Y-73772683D01*
X139004279Y-73772683D02*
X138766184Y-73772683D01*
X140194755Y-73106016D02*
X140194755Y-73772683D01*
X139956660Y-72725064D02*
X139718565Y-73439349D01*
X139718565Y-73439349D02*
X140337612Y-73439349D01*
X133528088Y-83272683D02*
X133051898Y-83272683D01*
X133051898Y-83272683D02*
X133051898Y-82272683D01*
X133861422Y-82748873D02*
X134194755Y-82748873D01*
X134337612Y-83272683D02*
X133861422Y-83272683D01*
X133861422Y-83272683D02*
X133861422Y-82272683D01*
X133861422Y-82272683D02*
X134337612Y-82272683D01*
X134766184Y-83272683D02*
X134766184Y-82272683D01*
X134766184Y-82272683D02*
X135004279Y-82272683D01*
X135004279Y-82272683D02*
X135147136Y-82320302D01*
X135147136Y-82320302D02*
X135242374Y-82415540D01*
X135242374Y-82415540D02*
X135289993Y-82510778D01*
X135289993Y-82510778D02*
X135337612Y-82701254D01*
X135337612Y-82701254D02*
X135337612Y-82844111D01*
X135337612Y-82844111D02*
X135289993Y-83034587D01*
X135289993Y-83034587D02*
X135242374Y-83129825D01*
X135242374Y-83129825D02*
X135147136Y-83225064D01*
X135147136Y-83225064D02*
X135004279Y-83272683D01*
X135004279Y-83272683D02*
X134766184Y-83272683D01*
X135670946Y-82272683D02*
X136289993Y-82272683D01*
X136289993Y-82272683D02*
X135956660Y-82653635D01*
X135956660Y-82653635D02*
X136099517Y-82653635D01*
X136099517Y-82653635D02*
X136194755Y-82701254D01*
X136194755Y-82701254D02*
X136242374Y-82748873D01*
X136242374Y-82748873D02*
X136289993Y-82844111D01*
X136289993Y-82844111D02*
X136289993Y-83082206D01*
X136289993Y-83082206D02*
X136242374Y-83177444D01*
X136242374Y-83177444D02*
X136194755Y-83225064D01*
X136194755Y-83225064D02*
X136099517Y-83272683D01*
X136099517Y-83272683D02*
X135813803Y-83272683D01*
X135813803Y-83272683D02*
X135718565Y-83225064D01*
X135718565Y-83225064D02*
X135670946Y-83177444D01*
X128763088Y-92772683D02*
X128286898Y-92772683D01*
X128286898Y-92772683D02*
X128286898Y-91772683D01*
X129096422Y-92248873D02*
X129429755Y-92248873D01*
X129572612Y-92772683D02*
X129096422Y-92772683D01*
X129096422Y-92772683D02*
X129096422Y-91772683D01*
X129096422Y-91772683D02*
X129572612Y-91772683D01*
X130001184Y-92772683D02*
X130001184Y-91772683D01*
X130001184Y-91772683D02*
X130239279Y-91772683D01*
X130239279Y-91772683D02*
X130382136Y-91820302D01*
X130382136Y-91820302D02*
X130477374Y-91915540D01*
X130477374Y-91915540D02*
X130524993Y-92010778D01*
X130524993Y-92010778D02*
X130572612Y-92201254D01*
X130572612Y-92201254D02*
X130572612Y-92344111D01*
X130572612Y-92344111D02*
X130524993Y-92534587D01*
X130524993Y-92534587D02*
X130477374Y-92629825D01*
X130477374Y-92629825D02*
X130382136Y-92725064D01*
X130382136Y-92725064D02*
X130239279Y-92772683D01*
X130239279Y-92772683D02*
X130001184Y-92772683D01*
X130953565Y-91867921D02*
X131001184Y-91820302D01*
X131001184Y-91820302D02*
X131096422Y-91772683D01*
X131096422Y-91772683D02*
X131334517Y-91772683D01*
X131334517Y-91772683D02*
X131429755Y-91820302D01*
X131429755Y-91820302D02*
X131477374Y-91867921D01*
X131477374Y-91867921D02*
X131524993Y-91963159D01*
X131524993Y-91963159D02*
X131524993Y-92058397D01*
X131524993Y-92058397D02*
X131477374Y-92201254D01*
X131477374Y-92201254D02*
X130905946Y-92772683D01*
X130905946Y-92772683D02*
X131524993Y-92772683D01*
X124263088Y-100772683D02*
X123786898Y-100772683D01*
X123786898Y-100772683D02*
X123786898Y-99772683D01*
X124596422Y-100248873D02*
X124929755Y-100248873D01*
X125072612Y-100772683D02*
X124596422Y-100772683D01*
X124596422Y-100772683D02*
X124596422Y-99772683D01*
X124596422Y-99772683D02*
X125072612Y-99772683D01*
X125501184Y-100772683D02*
X125501184Y-99772683D01*
X125501184Y-99772683D02*
X125739279Y-99772683D01*
X125739279Y-99772683D02*
X125882136Y-99820302D01*
X125882136Y-99820302D02*
X125977374Y-99915540D01*
X125977374Y-99915540D02*
X126024993Y-100010778D01*
X126024993Y-100010778D02*
X126072612Y-100201254D01*
X126072612Y-100201254D02*
X126072612Y-100344111D01*
X126072612Y-100344111D02*
X126024993Y-100534587D01*
X126024993Y-100534587D02*
X125977374Y-100629825D01*
X125977374Y-100629825D02*
X125882136Y-100725064D01*
X125882136Y-100725064D02*
X125739279Y-100772683D01*
X125739279Y-100772683D02*
X125501184Y-100772683D01*
X127024993Y-100772683D02*
X126453565Y-100772683D01*
X126739279Y-100772683D02*
X126739279Y-99772683D01*
X126739279Y-99772683D02*
X126644041Y-99915540D01*
X126644041Y-99915540D02*
X126548803Y-100010778D01*
X126548803Y-100010778D02*
X126453565Y-100058397D01*
X163880952Y-112454819D02*
X163880952Y-111454819D01*
X164452380Y-112454819D02*
X164023809Y-111883390D01*
X164452380Y-111454819D02*
X163880952Y-112026247D01*
X164880952Y-111931009D02*
X165214285Y-111931009D01*
X165357142Y-112454819D02*
X164880952Y-112454819D01*
X164880952Y-112454819D02*
X164880952Y-111454819D01*
X164880952Y-111454819D02*
X165357142Y-111454819D01*
X165976190Y-111978628D02*
X165976190Y-112454819D01*
X165642857Y-111454819D02*
X165976190Y-111978628D01*
X165976190Y-111978628D02*
X166309523Y-111454819D01*
X167119047Y-111454819D02*
X166642857Y-111454819D01*
X166642857Y-111454819D02*
X166595238Y-111931009D01*
X166595238Y-111931009D02*
X166642857Y-111883390D01*
X166642857Y-111883390D02*
X166738095Y-111835771D01*
X166738095Y-111835771D02*
X166976190Y-111835771D01*
X166976190Y-111835771D02*
X167071428Y-111883390D01*
X167071428Y-111883390D02*
X167119047Y-111931009D01*
X167119047Y-111931009D02*
X167166666Y-112026247D01*
X167166666Y-112026247D02*
X167166666Y-112264342D01*
X167166666Y-112264342D02*
X167119047Y-112359580D01*
X167119047Y-112359580D02*
X167071428Y-112407200D01*
X167071428Y-112407200D02*
X166976190Y-112454819D01*
X166976190Y-112454819D02*
X166738095Y-112454819D01*
X166738095Y-112454819D02*
X166642857Y-112407200D01*
X166642857Y-112407200D02*
X166595238Y-112359580D01*
X163809524Y-114407200D02*
X163952381Y-114454819D01*
X163952381Y-114454819D02*
X164190476Y-114454819D01*
X164190476Y-114454819D02*
X164285714Y-114407200D01*
X164285714Y-114407200D02*
X164333333Y-114359580D01*
X164333333Y-114359580D02*
X164380952Y-114264342D01*
X164380952Y-114264342D02*
X164380952Y-114169104D01*
X164380952Y-114169104D02*
X164333333Y-114073866D01*
X164333333Y-114073866D02*
X164285714Y-114026247D01*
X164285714Y-114026247D02*
X164190476Y-113978628D01*
X164190476Y-113978628D02*
X164000000Y-113931009D01*
X164000000Y-113931009D02*
X163904762Y-113883390D01*
X163904762Y-113883390D02*
X163857143Y-113835771D01*
X163857143Y-113835771D02*
X163809524Y-113740533D01*
X163809524Y-113740533D02*
X163809524Y-113645295D01*
X163809524Y-113645295D02*
X163857143Y-113550057D01*
X163857143Y-113550057D02*
X163904762Y-113502438D01*
X163904762Y-113502438D02*
X164000000Y-113454819D01*
X164000000Y-113454819D02*
X164238095Y-113454819D01*
X164238095Y-113454819D02*
X164380952Y-113502438D01*
X164809524Y-114454819D02*
X164809524Y-113454819D01*
X164809524Y-113454819D02*
X165190476Y-113454819D01*
X165190476Y-113454819D02*
X165285714Y-113502438D01*
X165285714Y-113502438D02*
X165333333Y-113550057D01*
X165333333Y-113550057D02*
X165380952Y-113645295D01*
X165380952Y-113645295D02*
X165380952Y-113788152D01*
X165380952Y-113788152D02*
X165333333Y-113883390D01*
X165333333Y-113883390D02*
X165285714Y-113931009D01*
X165285714Y-113931009D02*
X165190476Y-113978628D01*
X165190476Y-113978628D02*
X164809524Y-113978628D01*
X165809524Y-113931009D02*
X166142857Y-113931009D01*
X166285714Y-114454819D02*
X165809524Y-114454819D01*
X165809524Y-114454819D02*
X165809524Y-113454819D01*
X165809524Y-113454819D02*
X166285714Y-113454819D01*
X166714286Y-113931009D02*
X167047619Y-113931009D01*
X167190476Y-114454819D02*
X166714286Y-114454819D01*
X166714286Y-114454819D02*
X166714286Y-113454819D01*
X166714286Y-113454819D02*
X167190476Y-113454819D01*
X167619048Y-114454819D02*
X167619048Y-113454819D01*
X167619048Y-113454819D02*
X167857143Y-113454819D01*
X167857143Y-113454819D02*
X168000000Y-113502438D01*
X168000000Y-113502438D02*
X168095238Y-113597676D01*
X168095238Y-113597676D02*
X168142857Y-113692914D01*
X168142857Y-113692914D02*
X168190476Y-113883390D01*
X168190476Y-113883390D02*
X168190476Y-114026247D01*
X168190476Y-114026247D02*
X168142857Y-114216723D01*
X168142857Y-114216723D02*
X168095238Y-114311961D01*
X168095238Y-114311961D02*
X168000000Y-114407200D01*
X168000000Y-114407200D02*
X167857143Y-114454819D01*
X167857143Y-114454819D02*
X167619048Y-114454819D01*
X160856403Y-61492781D02*
X160808784Y-61540401D01*
X160808784Y-61540401D02*
X160665927Y-61588020D01*
X160665927Y-61588020D02*
X160570689Y-61588020D01*
X160570689Y-61588020D02*
X160427832Y-61540401D01*
X160427832Y-61540401D02*
X160332594Y-61445162D01*
X160332594Y-61445162D02*
X160284975Y-61349924D01*
X160284975Y-61349924D02*
X160237356Y-61159448D01*
X160237356Y-61159448D02*
X160237356Y-61016591D01*
X160237356Y-61016591D02*
X160284975Y-60826115D01*
X160284975Y-60826115D02*
X160332594Y-60730877D01*
X160332594Y-60730877D02*
X160427832Y-60635639D01*
X160427832Y-60635639D02*
X160570689Y-60588020D01*
X160570689Y-60588020D02*
X160665927Y-60588020D01*
X160665927Y-60588020D02*
X160808784Y-60635639D01*
X160808784Y-60635639D02*
X160856403Y-60683258D01*
X161237356Y-60683258D02*
X161284975Y-60635639D01*
X161284975Y-60635639D02*
X161380213Y-60588020D01*
X161380213Y-60588020D02*
X161618308Y-60588020D01*
X161618308Y-60588020D02*
X161713546Y-60635639D01*
X161713546Y-60635639D02*
X161761165Y-60683258D01*
X161761165Y-60683258D02*
X161808784Y-60778496D01*
X161808784Y-60778496D02*
X161808784Y-60873734D01*
X161808784Y-60873734D02*
X161761165Y-61016591D01*
X161761165Y-61016591D02*
X161189737Y-61588020D01*
X161189737Y-61588020D02*
X161808784Y-61588020D01*
X143880952Y-112454819D02*
X143880952Y-111454819D01*
X144452380Y-112454819D02*
X144023809Y-111883390D01*
X144452380Y-111454819D02*
X143880952Y-112026247D01*
X144880952Y-111931009D02*
X145214285Y-111931009D01*
X145357142Y-112454819D02*
X144880952Y-112454819D01*
X144880952Y-112454819D02*
X144880952Y-111454819D01*
X144880952Y-111454819D02*
X145357142Y-111454819D01*
X145976190Y-111978628D02*
X145976190Y-112454819D01*
X145642857Y-111454819D02*
X145976190Y-111978628D01*
X145976190Y-111978628D02*
X146309523Y-111454819D01*
X147071428Y-111788152D02*
X147071428Y-112454819D01*
X146833333Y-111407200D02*
X146595238Y-112121485D01*
X146595238Y-112121485D02*
X147214285Y-112121485D01*
X143690476Y-114454819D02*
X143690476Y-113454819D01*
X143690476Y-113454819D02*
X144023809Y-114169104D01*
X144023809Y-114169104D02*
X144357142Y-113454819D01*
X144357142Y-113454819D02*
X144357142Y-114454819D01*
X145023809Y-113454819D02*
X145214285Y-113454819D01*
X145214285Y-113454819D02*
X145309523Y-113502438D01*
X145309523Y-113502438D02*
X145404761Y-113597676D01*
X145404761Y-113597676D02*
X145452380Y-113788152D01*
X145452380Y-113788152D02*
X145452380Y-114121485D01*
X145452380Y-114121485D02*
X145404761Y-114311961D01*
X145404761Y-114311961D02*
X145309523Y-114407200D01*
X145309523Y-114407200D02*
X145214285Y-114454819D01*
X145214285Y-114454819D02*
X145023809Y-114454819D01*
X145023809Y-114454819D02*
X144928571Y-114407200D01*
X144928571Y-114407200D02*
X144833333Y-114311961D01*
X144833333Y-114311961D02*
X144785714Y-114121485D01*
X144785714Y-114121485D02*
X144785714Y-113788152D01*
X144785714Y-113788152D02*
X144833333Y-113597676D01*
X144833333Y-113597676D02*
X144928571Y-113502438D01*
X144928571Y-113502438D02*
X145023809Y-113454819D01*
X145880952Y-114454819D02*
X145880952Y-113454819D01*
X145880952Y-113454819D02*
X146119047Y-113454819D01*
X146119047Y-113454819D02*
X146261904Y-113502438D01*
X146261904Y-113502438D02*
X146357142Y-113597676D01*
X146357142Y-113597676D02*
X146404761Y-113692914D01*
X146404761Y-113692914D02*
X146452380Y-113883390D01*
X146452380Y-113883390D02*
X146452380Y-114026247D01*
X146452380Y-114026247D02*
X146404761Y-114216723D01*
X146404761Y-114216723D02*
X146357142Y-114311961D01*
X146357142Y-114311961D02*
X146261904Y-114407200D01*
X146261904Y-114407200D02*
X146119047Y-114454819D01*
X146119047Y-114454819D02*
X145880952Y-114454819D01*
X146880952Y-113931009D02*
X147214285Y-113931009D01*
X147357142Y-114454819D02*
X146880952Y-114454819D01*
X146880952Y-114454819D02*
X146880952Y-113454819D01*
X146880952Y-113454819D02*
X147357142Y-113454819D01*
X172999278Y-68992683D02*
X172665945Y-68516492D01*
X172427850Y-68992683D02*
X172427850Y-67992683D01*
X172427850Y-67992683D02*
X172808802Y-67992683D01*
X172808802Y-67992683D02*
X172904040Y-68040302D01*
X172904040Y-68040302D02*
X172951659Y-68087921D01*
X172951659Y-68087921D02*
X172999278Y-68183159D01*
X172999278Y-68183159D02*
X172999278Y-68326016D01*
X172999278Y-68326016D02*
X172951659Y-68421254D01*
X172951659Y-68421254D02*
X172904040Y-68468873D01*
X172904040Y-68468873D02*
X172808802Y-68516492D01*
X172808802Y-68516492D02*
X172427850Y-68516492D01*
X173951659Y-68992683D02*
X173380231Y-68992683D01*
X173665945Y-68992683D02*
X173665945Y-67992683D01*
X173665945Y-67992683D02*
X173570707Y-68135540D01*
X173570707Y-68135540D02*
X173475469Y-68230778D01*
X173475469Y-68230778D02*
X173380231Y-68278397D01*
X174570707Y-67992683D02*
X174665945Y-67992683D01*
X174665945Y-67992683D02*
X174761183Y-68040302D01*
X174761183Y-68040302D02*
X174808802Y-68087921D01*
X174808802Y-68087921D02*
X174856421Y-68183159D01*
X174856421Y-68183159D02*
X174904040Y-68373635D01*
X174904040Y-68373635D02*
X174904040Y-68611730D01*
X174904040Y-68611730D02*
X174856421Y-68802206D01*
X174856421Y-68802206D02*
X174808802Y-68897444D01*
X174808802Y-68897444D02*
X174761183Y-68945064D01*
X174761183Y-68945064D02*
X174665945Y-68992683D01*
X174665945Y-68992683D02*
X174570707Y-68992683D01*
X174570707Y-68992683D02*
X174475469Y-68945064D01*
X174475469Y-68945064D02*
X174427850Y-68897444D01*
X174427850Y-68897444D02*
X174380231Y-68802206D01*
X174380231Y-68802206D02*
X174332612Y-68611730D01*
X174332612Y-68611730D02*
X174332612Y-68373635D01*
X174332612Y-68373635D02*
X174380231Y-68183159D01*
X174380231Y-68183159D02*
X174427850Y-68087921D01*
X174427850Y-68087921D02*
X174475469Y-68040302D01*
X174475469Y-68040302D02*
X174570707Y-67992683D01*
X146975469Y-82492683D02*
X146642136Y-82016492D01*
X146404041Y-82492683D02*
X146404041Y-81492683D01*
X146404041Y-81492683D02*
X146784993Y-81492683D01*
X146784993Y-81492683D02*
X146880231Y-81540302D01*
X146880231Y-81540302D02*
X146927850Y-81587921D01*
X146927850Y-81587921D02*
X146975469Y-81683159D01*
X146975469Y-81683159D02*
X146975469Y-81826016D01*
X146975469Y-81826016D02*
X146927850Y-81921254D01*
X146927850Y-81921254D02*
X146880231Y-81968873D01*
X146880231Y-81968873D02*
X146784993Y-82016492D01*
X146784993Y-82016492D02*
X146404041Y-82016492D01*
X147546898Y-81921254D02*
X147451660Y-81873635D01*
X147451660Y-81873635D02*
X147404041Y-81826016D01*
X147404041Y-81826016D02*
X147356422Y-81730778D01*
X147356422Y-81730778D02*
X147356422Y-81683159D01*
X147356422Y-81683159D02*
X147404041Y-81587921D01*
X147404041Y-81587921D02*
X147451660Y-81540302D01*
X147451660Y-81540302D02*
X147546898Y-81492683D01*
X147546898Y-81492683D02*
X147737374Y-81492683D01*
X147737374Y-81492683D02*
X147832612Y-81540302D01*
X147832612Y-81540302D02*
X147880231Y-81587921D01*
X147880231Y-81587921D02*
X147927850Y-81683159D01*
X147927850Y-81683159D02*
X147927850Y-81730778D01*
X147927850Y-81730778D02*
X147880231Y-81826016D01*
X147880231Y-81826016D02*
X147832612Y-81873635D01*
X147832612Y-81873635D02*
X147737374Y-81921254D01*
X147737374Y-81921254D02*
X147546898Y-81921254D01*
X147546898Y-81921254D02*
X147451660Y-81968873D01*
X147451660Y-81968873D02*
X147404041Y-82016492D01*
X147404041Y-82016492D02*
X147356422Y-82111730D01*
X147356422Y-82111730D02*
X147356422Y-82302206D01*
X147356422Y-82302206D02*
X147404041Y-82397444D01*
X147404041Y-82397444D02*
X147451660Y-82445064D01*
X147451660Y-82445064D02*
X147546898Y-82492683D01*
X147546898Y-82492683D02*
X147737374Y-82492683D01*
X147737374Y-82492683D02*
X147832612Y-82445064D01*
X147832612Y-82445064D02*
X147880231Y-82397444D01*
X147880231Y-82397444D02*
X147927850Y-82302206D01*
X147927850Y-82302206D02*
X147927850Y-82111730D01*
X147927850Y-82111730D02*
X147880231Y-82016492D01*
X147880231Y-82016492D02*
X147832612Y-81968873D01*
X147832612Y-81968873D02*
X147737374Y-81921254D01*
X167475469Y-82492683D02*
X167142136Y-82016492D01*
X166904041Y-82492683D02*
X166904041Y-81492683D01*
X166904041Y-81492683D02*
X167284993Y-81492683D01*
X167284993Y-81492683D02*
X167380231Y-81540302D01*
X167380231Y-81540302D02*
X167427850Y-81587921D01*
X167427850Y-81587921D02*
X167475469Y-81683159D01*
X167475469Y-81683159D02*
X167475469Y-81826016D01*
X167475469Y-81826016D02*
X167427850Y-81921254D01*
X167427850Y-81921254D02*
X167380231Y-81968873D01*
X167380231Y-81968873D02*
X167284993Y-82016492D01*
X167284993Y-82016492D02*
X166904041Y-82016492D01*
X167808803Y-81492683D02*
X168475469Y-81492683D01*
X168475469Y-81492683D02*
X168046898Y-82492683D01*
X126666666Y-58454819D02*
X126666666Y-59169104D01*
X126666666Y-59169104D02*
X126619047Y-59311961D01*
X126619047Y-59311961D02*
X126523809Y-59407200D01*
X126523809Y-59407200D02*
X126380952Y-59454819D01*
X126380952Y-59454819D02*
X126285714Y-59454819D01*
X127666666Y-59454819D02*
X127095238Y-59454819D01*
X127380952Y-59454819D02*
X127380952Y-58454819D01*
X127380952Y-58454819D02*
X127285714Y-58597676D01*
X127285714Y-58597676D02*
X127190476Y-58692914D01*
X127190476Y-58692914D02*
X127095238Y-58740533D01*
X123880952Y-112454819D02*
X123880952Y-111454819D01*
X124452380Y-112454819D02*
X124023809Y-111883390D01*
X124452380Y-111454819D02*
X123880952Y-112026247D01*
X124880952Y-111931009D02*
X125214285Y-111931009D01*
X125357142Y-112454819D02*
X124880952Y-112454819D01*
X124880952Y-112454819D02*
X124880952Y-111454819D01*
X124880952Y-111454819D02*
X125357142Y-111454819D01*
X125976190Y-111978628D02*
X125976190Y-112454819D01*
X125642857Y-111454819D02*
X125976190Y-111978628D01*
X125976190Y-111978628D02*
X126309523Y-111454819D01*
X126595238Y-111550057D02*
X126642857Y-111502438D01*
X126642857Y-111502438D02*
X126738095Y-111454819D01*
X126738095Y-111454819D02*
X126976190Y-111454819D01*
X126976190Y-111454819D02*
X127071428Y-111502438D01*
X127071428Y-111502438D02*
X127119047Y-111550057D01*
X127119047Y-111550057D02*
X127166666Y-111645295D01*
X127166666Y-111645295D02*
X127166666Y-111740533D01*
X127166666Y-111740533D02*
X127119047Y-111883390D01*
X127119047Y-111883390D02*
X126547619Y-112454819D01*
X126547619Y-112454819D02*
X127166666Y-112454819D01*
X123952381Y-113454819D02*
X124523809Y-113454819D01*
X124238095Y-114454819D02*
X124238095Y-113454819D01*
X124857143Y-114454819D02*
X124857143Y-113454819D01*
X125333333Y-114454819D02*
X125333333Y-113454819D01*
X125333333Y-113454819D02*
X125666666Y-114169104D01*
X125666666Y-114169104D02*
X125999999Y-113454819D01*
X125999999Y-113454819D02*
X125999999Y-114454819D01*
X126476190Y-113931009D02*
X126809523Y-113931009D01*
X126952380Y-114454819D02*
X126476190Y-114454819D01*
X126476190Y-114454819D02*
X126476190Y-113454819D01*
X126476190Y-113454819D02*
X126952380Y-113454819D01*
X127952380Y-114454819D02*
X127619047Y-113978628D01*
X127380952Y-114454819D02*
X127380952Y-113454819D01*
X127380952Y-113454819D02*
X127761904Y-113454819D01*
X127761904Y-113454819D02*
X127857142Y-113502438D01*
X127857142Y-113502438D02*
X127904761Y-113550057D01*
X127904761Y-113550057D02*
X127952380Y-113645295D01*
X127952380Y-113645295D02*
X127952380Y-113788152D01*
X127952380Y-113788152D02*
X127904761Y-113883390D01*
X127904761Y-113883390D02*
X127857142Y-113931009D01*
X127857142Y-113931009D02*
X127761904Y-113978628D01*
X127761904Y-113978628D02*
X127380952Y-113978628D01*
X160975469Y-95992683D02*
X160642136Y-95516492D01*
X160404041Y-95992683D02*
X160404041Y-94992683D01*
X160404041Y-94992683D02*
X160784993Y-94992683D01*
X160784993Y-94992683D02*
X160880231Y-95040302D01*
X160880231Y-95040302D02*
X160927850Y-95087921D01*
X160927850Y-95087921D02*
X160975469Y-95183159D01*
X160975469Y-95183159D02*
X160975469Y-95326016D01*
X160975469Y-95326016D02*
X160927850Y-95421254D01*
X160927850Y-95421254D02*
X160880231Y-95468873D01*
X160880231Y-95468873D02*
X160784993Y-95516492D01*
X160784993Y-95516492D02*
X160404041Y-95516492D01*
X161832612Y-94992683D02*
X161642136Y-94992683D01*
X161642136Y-94992683D02*
X161546898Y-95040302D01*
X161546898Y-95040302D02*
X161499279Y-95087921D01*
X161499279Y-95087921D02*
X161404041Y-95230778D01*
X161404041Y-95230778D02*
X161356422Y-95421254D01*
X161356422Y-95421254D02*
X161356422Y-95802206D01*
X161356422Y-95802206D02*
X161404041Y-95897444D01*
X161404041Y-95897444D02*
X161451660Y-95945064D01*
X161451660Y-95945064D02*
X161546898Y-95992683D01*
X161546898Y-95992683D02*
X161737374Y-95992683D01*
X161737374Y-95992683D02*
X161832612Y-95945064D01*
X161832612Y-95945064D02*
X161880231Y-95897444D01*
X161880231Y-95897444D02*
X161927850Y-95802206D01*
X161927850Y-95802206D02*
X161927850Y-95564111D01*
X161927850Y-95564111D02*
X161880231Y-95468873D01*
X161880231Y-95468873D02*
X161832612Y-95421254D01*
X161832612Y-95421254D02*
X161737374Y-95373635D01*
X161737374Y-95373635D02*
X161546898Y-95373635D01*
X161546898Y-95373635D02*
X161451660Y-95421254D01*
X161451660Y-95421254D02*
X161404041Y-95468873D01*
X161404041Y-95468873D02*
X161356422Y-95564111D01*
X134238095Y-59956819D02*
X134809523Y-59956819D01*
X134523809Y-60956819D02*
X134523809Y-59956819D01*
X135142857Y-60956819D02*
X135142857Y-59956819D01*
X135142857Y-59956819D02*
X135523809Y-59956819D01*
X135523809Y-59956819D02*
X135619047Y-60004438D01*
X135619047Y-60004438D02*
X135666666Y-60052057D01*
X135666666Y-60052057D02*
X135714285Y-60147295D01*
X135714285Y-60147295D02*
X135714285Y-60290152D01*
X135714285Y-60290152D02*
X135666666Y-60385390D01*
X135666666Y-60385390D02*
X135619047Y-60433009D01*
X135619047Y-60433009D02*
X135523809Y-60480628D01*
X135523809Y-60480628D02*
X135142857Y-60480628D01*
X136095238Y-60052057D02*
X136142857Y-60004438D01*
X136142857Y-60004438D02*
X136238095Y-59956819D01*
X136238095Y-59956819D02*
X136476190Y-59956819D01*
X136476190Y-59956819D02*
X136571428Y-60004438D01*
X136571428Y-60004438D02*
X136619047Y-60052057D01*
X136619047Y-60052057D02*
X136666666Y-60147295D01*
X136666666Y-60147295D02*
X136666666Y-60242533D01*
X136666666Y-60242533D02*
X136619047Y-60385390D01*
X136619047Y-60385390D02*
X136047619Y-60956819D01*
X136047619Y-60956819D02*
X136666666Y-60956819D01*
X135309523Y-64004819D02*
X134833333Y-64004819D01*
X134833333Y-64004819D02*
X134785714Y-64481009D01*
X134785714Y-64481009D02*
X134833333Y-64433390D01*
X134833333Y-64433390D02*
X134928571Y-64385771D01*
X134928571Y-64385771D02*
X135166666Y-64385771D01*
X135166666Y-64385771D02*
X135261904Y-64433390D01*
X135261904Y-64433390D02*
X135309523Y-64481009D01*
X135309523Y-64481009D02*
X135357142Y-64576247D01*
X135357142Y-64576247D02*
X135357142Y-64814342D01*
X135357142Y-64814342D02*
X135309523Y-64909580D01*
X135309523Y-64909580D02*
X135261904Y-64957200D01*
X135261904Y-64957200D02*
X135166666Y-65004819D01*
X135166666Y-65004819D02*
X134928571Y-65004819D01*
X134928571Y-65004819D02*
X134833333Y-64957200D01*
X134833333Y-64957200D02*
X134785714Y-64909580D01*
X135642857Y-64004819D02*
X135976190Y-65004819D01*
X135976190Y-65004819D02*
X136309523Y-64004819D01*
X153499278Y-68992683D02*
X153165945Y-68516492D01*
X152927850Y-68992683D02*
X152927850Y-67992683D01*
X152927850Y-67992683D02*
X153308802Y-67992683D01*
X153308802Y-67992683D02*
X153404040Y-68040302D01*
X153404040Y-68040302D02*
X153451659Y-68087921D01*
X153451659Y-68087921D02*
X153499278Y-68183159D01*
X153499278Y-68183159D02*
X153499278Y-68326016D01*
X153499278Y-68326016D02*
X153451659Y-68421254D01*
X153451659Y-68421254D02*
X153404040Y-68468873D01*
X153404040Y-68468873D02*
X153308802Y-68516492D01*
X153308802Y-68516492D02*
X152927850Y-68516492D01*
X154451659Y-68992683D02*
X153880231Y-68992683D01*
X154165945Y-68992683D02*
X154165945Y-67992683D01*
X154165945Y-67992683D02*
X154070707Y-68135540D01*
X154070707Y-68135540D02*
X153975469Y-68230778D01*
X153975469Y-68230778D02*
X153880231Y-68278397D01*
X155404040Y-68992683D02*
X154832612Y-68992683D01*
X155118326Y-68992683D02*
X155118326Y-67992683D01*
X155118326Y-67992683D02*
X155023088Y-68135540D01*
X155023088Y-68135540D02*
X154927850Y-68230778D01*
X154927850Y-68230778D02*
X154832612Y-68278397D01*
X183880952Y-112454819D02*
X183880952Y-111454819D01*
X184452380Y-112454819D02*
X184023809Y-111883390D01*
X184452380Y-111454819D02*
X183880952Y-112026247D01*
X184880952Y-111931009D02*
X185214285Y-111931009D01*
X185357142Y-112454819D02*
X184880952Y-112454819D01*
X184880952Y-112454819D02*
X184880952Y-111454819D01*
X184880952Y-111454819D02*
X185357142Y-111454819D01*
X185976190Y-111978628D02*
X185976190Y-112454819D01*
X185642857Y-111454819D02*
X185976190Y-111978628D01*
X185976190Y-111978628D02*
X186309523Y-111454819D01*
X187071428Y-111454819D02*
X186880952Y-111454819D01*
X186880952Y-111454819D02*
X186785714Y-111502438D01*
X186785714Y-111502438D02*
X186738095Y-111550057D01*
X186738095Y-111550057D02*
X186642857Y-111692914D01*
X186642857Y-111692914D02*
X186595238Y-111883390D01*
X186595238Y-111883390D02*
X186595238Y-112264342D01*
X186595238Y-112264342D02*
X186642857Y-112359580D01*
X186642857Y-112359580D02*
X186690476Y-112407200D01*
X186690476Y-112407200D02*
X186785714Y-112454819D01*
X186785714Y-112454819D02*
X186976190Y-112454819D01*
X186976190Y-112454819D02*
X187071428Y-112407200D01*
X187071428Y-112407200D02*
X187119047Y-112359580D01*
X187119047Y-112359580D02*
X187166666Y-112264342D01*
X187166666Y-112264342D02*
X187166666Y-112026247D01*
X187166666Y-112026247D02*
X187119047Y-111931009D01*
X187119047Y-111931009D02*
X187071428Y-111883390D01*
X187071428Y-111883390D02*
X186976190Y-111835771D01*
X186976190Y-111835771D02*
X186785714Y-111835771D01*
X186785714Y-111835771D02*
X186690476Y-111883390D01*
X186690476Y-111883390D02*
X186642857Y-111931009D01*
X186642857Y-111931009D02*
X186595238Y-112026247D01*
X183976190Y-113454819D02*
X184166666Y-113454819D01*
X184166666Y-113454819D02*
X184261904Y-113502438D01*
X184261904Y-113502438D02*
X184357142Y-113597676D01*
X184357142Y-113597676D02*
X184404761Y-113788152D01*
X184404761Y-113788152D02*
X184404761Y-114121485D01*
X184404761Y-114121485D02*
X184357142Y-114311961D01*
X184357142Y-114311961D02*
X184261904Y-114407200D01*
X184261904Y-114407200D02*
X184166666Y-114454819D01*
X184166666Y-114454819D02*
X183976190Y-114454819D01*
X183976190Y-114454819D02*
X183880952Y-114407200D01*
X183880952Y-114407200D02*
X183785714Y-114311961D01*
X183785714Y-114311961D02*
X183738095Y-114121485D01*
X183738095Y-114121485D02*
X183738095Y-113788152D01*
X183738095Y-113788152D02*
X183785714Y-113597676D01*
X183785714Y-113597676D02*
X183880952Y-113502438D01*
X183880952Y-113502438D02*
X183976190Y-113454819D01*
X184833333Y-114454819D02*
X184833333Y-113454819D01*
X184833333Y-113454819D02*
X185404761Y-114454819D01*
X185404761Y-114454819D02*
X185404761Y-113454819D01*
X186595237Y-113407200D02*
X185738095Y-114692914D01*
X187119047Y-113454819D02*
X187309523Y-113454819D01*
X187309523Y-113454819D02*
X187404761Y-113502438D01*
X187404761Y-113502438D02*
X187499999Y-113597676D01*
X187499999Y-113597676D02*
X187547618Y-113788152D01*
X187547618Y-113788152D02*
X187547618Y-114121485D01*
X187547618Y-114121485D02*
X187499999Y-114311961D01*
X187499999Y-114311961D02*
X187404761Y-114407200D01*
X187404761Y-114407200D02*
X187309523Y-114454819D01*
X187309523Y-114454819D02*
X187119047Y-114454819D01*
X187119047Y-114454819D02*
X187023809Y-114407200D01*
X187023809Y-114407200D02*
X186928571Y-114311961D01*
X186928571Y-114311961D02*
X186880952Y-114121485D01*
X186880952Y-114121485D02*
X186880952Y-113788152D01*
X186880952Y-113788152D02*
X186928571Y-113597676D01*
X186928571Y-113597676D02*
X187023809Y-113502438D01*
X187023809Y-113502438D02*
X187119047Y-113454819D01*
X188309523Y-113931009D02*
X187976190Y-113931009D01*
X187976190Y-114454819D02*
X187976190Y-113454819D01*
X187976190Y-113454819D02*
X188452380Y-113454819D01*
X189166666Y-113931009D02*
X188833333Y-113931009D01*
X188833333Y-114454819D02*
X188833333Y-113454819D01*
X188833333Y-113454819D02*
X189309523Y-113454819D01*
X123880952Y-68954819D02*
X123880952Y-67954819D01*
X124452380Y-68954819D02*
X124023809Y-68383390D01*
X124452380Y-67954819D02*
X123880952Y-68526247D01*
X124880952Y-68431009D02*
X125214285Y-68431009D01*
X125357142Y-68954819D02*
X124880952Y-68954819D01*
X124880952Y-68954819D02*
X124880952Y-67954819D01*
X124880952Y-67954819D02*
X125357142Y-67954819D01*
X125976190Y-68478628D02*
X125976190Y-68954819D01*
X125642857Y-67954819D02*
X125976190Y-68478628D01*
X125976190Y-68478628D02*
X126309523Y-67954819D01*
X126547619Y-67954819D02*
X127166666Y-67954819D01*
X127166666Y-67954819D02*
X126833333Y-68335771D01*
X126833333Y-68335771D02*
X126976190Y-68335771D01*
X126976190Y-68335771D02*
X127071428Y-68383390D01*
X127071428Y-68383390D02*
X127119047Y-68431009D01*
X127119047Y-68431009D02*
X127166666Y-68526247D01*
X127166666Y-68526247D02*
X127166666Y-68764342D01*
X127166666Y-68764342D02*
X127119047Y-68859580D01*
X127119047Y-68859580D02*
X127071428Y-68907200D01*
X127071428Y-68907200D02*
X126976190Y-68954819D01*
X126976190Y-68954819D02*
X126690476Y-68954819D01*
X126690476Y-68954819D02*
X126595238Y-68907200D01*
X126595238Y-68907200D02*
X126547619Y-68859580D01*
X124142857Y-70907200D02*
X124285714Y-70954819D01*
X124285714Y-70954819D02*
X124523809Y-70954819D01*
X124523809Y-70954819D02*
X124619047Y-70907200D01*
X124619047Y-70907200D02*
X124666666Y-70859580D01*
X124666666Y-70859580D02*
X124714285Y-70764342D01*
X124714285Y-70764342D02*
X124714285Y-70669104D01*
X124714285Y-70669104D02*
X124666666Y-70573866D01*
X124666666Y-70573866D02*
X124619047Y-70526247D01*
X124619047Y-70526247D02*
X124523809Y-70478628D01*
X124523809Y-70478628D02*
X124333333Y-70431009D01*
X124333333Y-70431009D02*
X124238095Y-70383390D01*
X124238095Y-70383390D02*
X124190476Y-70335771D01*
X124190476Y-70335771D02*
X124142857Y-70240533D01*
X124142857Y-70240533D02*
X124142857Y-70145295D01*
X124142857Y-70145295D02*
X124190476Y-70050057D01*
X124190476Y-70050057D02*
X124238095Y-70002438D01*
X124238095Y-70002438D02*
X124333333Y-69954819D01*
X124333333Y-69954819D02*
X124571428Y-69954819D01*
X124571428Y-69954819D02*
X124714285Y-70002438D01*
X125047619Y-69954819D02*
X125285714Y-70954819D01*
X125285714Y-70954819D02*
X125476190Y-70240533D01*
X125476190Y-70240533D02*
X125666666Y-70954819D01*
X125666666Y-70954819D02*
X125904762Y-69954819D01*
X129475469Y-78492683D02*
X129142136Y-78016492D01*
X128904041Y-78492683D02*
X128904041Y-77492683D01*
X128904041Y-77492683D02*
X129284993Y-77492683D01*
X129284993Y-77492683D02*
X129380231Y-77540302D01*
X129380231Y-77540302D02*
X129427850Y-77587921D01*
X129427850Y-77587921D02*
X129475469Y-77683159D01*
X129475469Y-77683159D02*
X129475469Y-77826016D01*
X129475469Y-77826016D02*
X129427850Y-77921254D01*
X129427850Y-77921254D02*
X129380231Y-77968873D01*
X129380231Y-77968873D02*
X129284993Y-78016492D01*
X129284993Y-78016492D02*
X128904041Y-78016492D01*
X129951660Y-78492683D02*
X130142136Y-78492683D01*
X130142136Y-78492683D02*
X130237374Y-78445064D01*
X130237374Y-78445064D02*
X130284993Y-78397444D01*
X130284993Y-78397444D02*
X130380231Y-78254587D01*
X130380231Y-78254587D02*
X130427850Y-78064111D01*
X130427850Y-78064111D02*
X130427850Y-77683159D01*
X130427850Y-77683159D02*
X130380231Y-77587921D01*
X130380231Y-77587921D02*
X130332612Y-77540302D01*
X130332612Y-77540302D02*
X130237374Y-77492683D01*
X130237374Y-77492683D02*
X130046898Y-77492683D01*
X130046898Y-77492683D02*
X129951660Y-77540302D01*
X129951660Y-77540302D02*
X129904041Y-77587921D01*
X129904041Y-77587921D02*
X129856422Y-77683159D01*
X129856422Y-77683159D02*
X129856422Y-77921254D01*
X129856422Y-77921254D02*
X129904041Y-78016492D01*
X129904041Y-78016492D02*
X129951660Y-78064111D01*
X129951660Y-78064111D02*
X130046898Y-78111730D01*
X130046898Y-78111730D02*
X130237374Y-78111730D01*
X130237374Y-78111730D02*
X130332612Y-78064111D01*
X130332612Y-78064111D02*
X130380231Y-78016492D01*
X130380231Y-78016492D02*
X130427850Y-77921254D01*
X108333333Y-55509580D02*
X108285714Y-55557200D01*
X108285714Y-55557200D02*
X108142857Y-55604819D01*
X108142857Y-55604819D02*
X108047619Y-55604819D01*
X108047619Y-55604819D02*
X107904762Y-55557200D01*
X107904762Y-55557200D02*
X107809524Y-55461961D01*
X107809524Y-55461961D02*
X107761905Y-55366723D01*
X107761905Y-55366723D02*
X107714286Y-55176247D01*
X107714286Y-55176247D02*
X107714286Y-55033390D01*
X107714286Y-55033390D02*
X107761905Y-54842914D01*
X107761905Y-54842914D02*
X107809524Y-54747676D01*
X107809524Y-54747676D02*
X107904762Y-54652438D01*
X107904762Y-54652438D02*
X108047619Y-54604819D01*
X108047619Y-54604819D02*
X108142857Y-54604819D01*
X108142857Y-54604819D02*
X108285714Y-54652438D01*
X108285714Y-54652438D02*
X108333333Y-54700057D01*
X109190476Y-54938152D02*
X109190476Y-55604819D01*
X108952381Y-54557200D02*
X108714286Y-55271485D01*
X108714286Y-55271485D02*
X109333333Y-55271485D01*
X132999278Y-68992683D02*
X132665945Y-68516492D01*
X132427850Y-68992683D02*
X132427850Y-67992683D01*
X132427850Y-67992683D02*
X132808802Y-67992683D01*
X132808802Y-67992683D02*
X132904040Y-68040302D01*
X132904040Y-68040302D02*
X132951659Y-68087921D01*
X132951659Y-68087921D02*
X132999278Y-68183159D01*
X132999278Y-68183159D02*
X132999278Y-68326016D01*
X132999278Y-68326016D02*
X132951659Y-68421254D01*
X132951659Y-68421254D02*
X132904040Y-68468873D01*
X132904040Y-68468873D02*
X132808802Y-68516492D01*
X132808802Y-68516492D02*
X132427850Y-68516492D01*
X133951659Y-68992683D02*
X133380231Y-68992683D01*
X133665945Y-68992683D02*
X133665945Y-67992683D01*
X133665945Y-67992683D02*
X133570707Y-68135540D01*
X133570707Y-68135540D02*
X133475469Y-68230778D01*
X133475469Y-68230778D02*
X133380231Y-68278397D01*
X134332612Y-68087921D02*
X134380231Y-68040302D01*
X134380231Y-68040302D02*
X134475469Y-67992683D01*
X134475469Y-67992683D02*
X134713564Y-67992683D01*
X134713564Y-67992683D02*
X134808802Y-68040302D01*
X134808802Y-68040302D02*
X134856421Y-68087921D01*
X134856421Y-68087921D02*
X134904040Y-68183159D01*
X134904040Y-68183159D02*
X134904040Y-68278397D01*
X134904040Y-68278397D02*
X134856421Y-68421254D01*
X134856421Y-68421254D02*
X134284993Y-68992683D01*
X134284993Y-68992683D02*
X134904040Y-68992683D01*
X122916955Y-93199530D02*
X122440764Y-93532863D01*
X122916955Y-93770958D02*
X121916955Y-93770958D01*
X121916955Y-93770958D02*
X121916955Y-93390006D01*
X121916955Y-93390006D02*
X121964574Y-93294768D01*
X121964574Y-93294768D02*
X122012193Y-93247149D01*
X122012193Y-93247149D02*
X122107431Y-93199530D01*
X122107431Y-93199530D02*
X122250288Y-93199530D01*
X122250288Y-93199530D02*
X122345526Y-93247149D01*
X122345526Y-93247149D02*
X122393145Y-93294768D01*
X122393145Y-93294768D02*
X122440764Y-93390006D01*
X122440764Y-93390006D02*
X122440764Y-93770958D01*
X121916955Y-92866196D02*
X121916955Y-92247149D01*
X121916955Y-92247149D02*
X122297907Y-92580482D01*
X122297907Y-92580482D02*
X122297907Y-92437625D01*
X122297907Y-92437625D02*
X122345526Y-92342387D01*
X122345526Y-92342387D02*
X122393145Y-92294768D01*
X122393145Y-92294768D02*
X122488383Y-92247149D01*
X122488383Y-92247149D02*
X122726478Y-92247149D01*
X122726478Y-92247149D02*
X122821716Y-92294768D01*
X122821716Y-92294768D02*
X122869336Y-92342387D01*
X122869336Y-92342387D02*
X122916955Y-92437625D01*
X122916955Y-92437625D02*
X122916955Y-92723339D01*
X122916955Y-92723339D02*
X122869336Y-92818577D01*
X122869336Y-92818577D02*
X122821716Y-92866196D01*
X163954819Y-60261904D02*
X164764342Y-60261904D01*
X164764342Y-60261904D02*
X164859580Y-60214285D01*
X164859580Y-60214285D02*
X164907200Y-60166666D01*
X164907200Y-60166666D02*
X164954819Y-60071428D01*
X164954819Y-60071428D02*
X164954819Y-59880952D01*
X164954819Y-59880952D02*
X164907200Y-59785714D01*
X164907200Y-59785714D02*
X164859580Y-59738095D01*
X164859580Y-59738095D02*
X164764342Y-59690476D01*
X164764342Y-59690476D02*
X163954819Y-59690476D01*
X164050057Y-59261904D02*
X164002438Y-59214285D01*
X164002438Y-59214285D02*
X163954819Y-59119047D01*
X163954819Y-59119047D02*
X163954819Y-58880952D01*
X163954819Y-58880952D02*
X164002438Y-58785714D01*
X164002438Y-58785714D02*
X164050057Y-58738095D01*
X164050057Y-58738095D02*
X164145295Y-58690476D01*
X164145295Y-58690476D02*
X164240533Y-58690476D01*
X164240533Y-58690476D02*
X164383390Y-58738095D01*
X164383390Y-58738095D02*
X164954819Y-59309523D01*
X164954819Y-59309523D02*
X164954819Y-58690476D01*
X140975469Y-94992683D02*
X140642136Y-94516492D01*
X140404041Y-94992683D02*
X140404041Y-93992683D01*
X140404041Y-93992683D02*
X140784993Y-93992683D01*
X140784993Y-93992683D02*
X140880231Y-94040302D01*
X140880231Y-94040302D02*
X140927850Y-94087921D01*
X140927850Y-94087921D02*
X140975469Y-94183159D01*
X140975469Y-94183159D02*
X140975469Y-94326016D01*
X140975469Y-94326016D02*
X140927850Y-94421254D01*
X140927850Y-94421254D02*
X140880231Y-94468873D01*
X140880231Y-94468873D02*
X140784993Y-94516492D01*
X140784993Y-94516492D02*
X140404041Y-94516492D01*
X141832612Y-94326016D02*
X141832612Y-94992683D01*
X141594517Y-93945064D02*
X141356422Y-94659349D01*
X141356422Y-94659349D02*
X141975469Y-94659349D01*
X108724819Y-111718333D02*
X109439104Y-111718333D01*
X109439104Y-111718333D02*
X109581961Y-111765952D01*
X109581961Y-111765952D02*
X109677200Y-111861190D01*
X109677200Y-111861190D02*
X109724819Y-112004047D01*
X109724819Y-112004047D02*
X109724819Y-112099285D01*
X108724819Y-111337380D02*
X108724819Y-110718333D01*
X108724819Y-110718333D02*
X109105771Y-111051666D01*
X109105771Y-111051666D02*
X109105771Y-110908809D01*
X109105771Y-110908809D02*
X109153390Y-110813571D01*
X109153390Y-110813571D02*
X109201009Y-110765952D01*
X109201009Y-110765952D02*
X109296247Y-110718333D01*
X109296247Y-110718333D02*
X109534342Y-110718333D01*
X109534342Y-110718333D02*
X109629580Y-110765952D01*
X109629580Y-110765952D02*
X109677200Y-110813571D01*
X109677200Y-110813571D02*
X109724819Y-110908809D01*
X109724819Y-110908809D02*
X109724819Y-111194523D01*
X109724819Y-111194523D02*
X109677200Y-111289761D01*
X109677200Y-111289761D02*
X109629580Y-111337380D01*
X147658095Y-124054819D02*
X147658095Y-124864342D01*
X147658095Y-124864342D02*
X147705714Y-124959580D01*
X147705714Y-124959580D02*
X147753333Y-125007200D01*
X147753333Y-125007200D02*
X147848571Y-125054819D01*
X147848571Y-125054819D02*
X148039047Y-125054819D01*
X148039047Y-125054819D02*
X148134285Y-125007200D01*
X148134285Y-125007200D02*
X148181904Y-124959580D01*
X148181904Y-124959580D02*
X148229523Y-124864342D01*
X148229523Y-124864342D02*
X148229523Y-124054819D01*
X148610476Y-124054819D02*
X149229523Y-124054819D01*
X149229523Y-124054819D02*
X148896190Y-124435771D01*
X148896190Y-124435771D02*
X149039047Y-124435771D01*
X149039047Y-124435771D02*
X149134285Y-124483390D01*
X149134285Y-124483390D02*
X149181904Y-124531009D01*
X149181904Y-124531009D02*
X149229523Y-124626247D01*
X149229523Y-124626247D02*
X149229523Y-124864342D01*
X149229523Y-124864342D02*
X149181904Y-124959580D01*
X149181904Y-124959580D02*
X149134285Y-125007200D01*
X149134285Y-125007200D02*
X149039047Y-125054819D01*
X149039047Y-125054819D02*
X148753333Y-125054819D01*
X148753333Y-125054819D02*
X148658095Y-125007200D01*
X148658095Y-125007200D02*
X148610476Y-124959580D01*
X175222341Y-61519453D02*
X175174722Y-61567073D01*
X175174722Y-61567073D02*
X175031865Y-61614692D01*
X175031865Y-61614692D02*
X174936627Y-61614692D01*
X174936627Y-61614692D02*
X174793770Y-61567073D01*
X174793770Y-61567073D02*
X174698532Y-61471834D01*
X174698532Y-61471834D02*
X174650913Y-61376596D01*
X174650913Y-61376596D02*
X174603294Y-61186120D01*
X174603294Y-61186120D02*
X174603294Y-61043263D01*
X174603294Y-61043263D02*
X174650913Y-60852787D01*
X174650913Y-60852787D02*
X174698532Y-60757549D01*
X174698532Y-60757549D02*
X174793770Y-60662311D01*
X174793770Y-60662311D02*
X174936627Y-60614692D01*
X174936627Y-60614692D02*
X175031865Y-60614692D01*
X175031865Y-60614692D02*
X175174722Y-60662311D01*
X175174722Y-60662311D02*
X175222341Y-60709930D01*
X175555675Y-60614692D02*
X176174722Y-60614692D01*
X176174722Y-60614692D02*
X175841389Y-60995644D01*
X175841389Y-60995644D02*
X175984246Y-60995644D01*
X175984246Y-60995644D02*
X176079484Y-61043263D01*
X176079484Y-61043263D02*
X176127103Y-61090882D01*
X176127103Y-61090882D02*
X176174722Y-61186120D01*
X176174722Y-61186120D02*
X176174722Y-61424215D01*
X176174722Y-61424215D02*
X176127103Y-61519453D01*
X176127103Y-61519453D02*
X176079484Y-61567073D01*
X176079484Y-61567073D02*
X175984246Y-61614692D01*
X175984246Y-61614692D02*
X175698532Y-61614692D01*
X175698532Y-61614692D02*
X175603294Y-61567073D01*
X175603294Y-61567073D02*
X175555675Y-61519453D01*
X108333333Y-62274819D02*
X108000000Y-61798628D01*
X107761905Y-62274819D02*
X107761905Y-61274819D01*
X107761905Y-61274819D02*
X108142857Y-61274819D01*
X108142857Y-61274819D02*
X108238095Y-61322438D01*
X108238095Y-61322438D02*
X108285714Y-61370057D01*
X108285714Y-61370057D02*
X108333333Y-61465295D01*
X108333333Y-61465295D02*
X108333333Y-61608152D01*
X108333333Y-61608152D02*
X108285714Y-61703390D01*
X108285714Y-61703390D02*
X108238095Y-61751009D01*
X108238095Y-61751009D02*
X108142857Y-61798628D01*
X108142857Y-61798628D02*
X107761905Y-61798628D01*
X109285714Y-62274819D02*
X108714286Y-62274819D01*
X109000000Y-62274819D02*
X109000000Y-61274819D01*
X109000000Y-61274819D02*
X108904762Y-61417676D01*
X108904762Y-61417676D02*
X108809524Y-61512914D01*
X108809524Y-61512914D02*
X108714286Y-61560533D01*
X124475469Y-87992683D02*
X124142136Y-87516492D01*
X123904041Y-87992683D02*
X123904041Y-86992683D01*
X123904041Y-86992683D02*
X124284993Y-86992683D01*
X124284993Y-86992683D02*
X124380231Y-87040302D01*
X124380231Y-87040302D02*
X124427850Y-87087921D01*
X124427850Y-87087921D02*
X124475469Y-87183159D01*
X124475469Y-87183159D02*
X124475469Y-87326016D01*
X124475469Y-87326016D02*
X124427850Y-87421254D01*
X124427850Y-87421254D02*
X124380231Y-87468873D01*
X124380231Y-87468873D02*
X124284993Y-87516492D01*
X124284993Y-87516492D02*
X123904041Y-87516492D01*
X125380231Y-86992683D02*
X124904041Y-86992683D01*
X124904041Y-86992683D02*
X124856422Y-87468873D01*
X124856422Y-87468873D02*
X124904041Y-87421254D01*
X124904041Y-87421254D02*
X124999279Y-87373635D01*
X124999279Y-87373635D02*
X125237374Y-87373635D01*
X125237374Y-87373635D02*
X125332612Y-87421254D01*
X125332612Y-87421254D02*
X125380231Y-87468873D01*
X125380231Y-87468873D02*
X125427850Y-87564111D01*
X125427850Y-87564111D02*
X125427850Y-87802206D01*
X125427850Y-87802206D02*
X125380231Y-87897444D01*
X125380231Y-87897444D02*
X125332612Y-87945064D01*
X125332612Y-87945064D02*
X125237374Y-87992683D01*
X125237374Y-87992683D02*
X124999279Y-87992683D01*
X124999279Y-87992683D02*
X124904041Y-87945064D01*
X124904041Y-87945064D02*
X124856422Y-87897444D01*
D13*
%TO.C,U1*%
X111492136Y-66157864D02*
X111492136Y-81557864D01*
X111642136Y-80657864D02*
X111642136Y-81707864D01*
X111642136Y-81707864D02*
X110592136Y-81707864D01*
X96092136Y-66157864D02*
X111492136Y-66157864D01*
X111642136Y-67057864D02*
X111642136Y-66007864D01*
X95942136Y-67057864D02*
X95942136Y-66007864D01*
X111642136Y-66007864D02*
X110592136Y-66007864D01*
X96092136Y-81557864D02*
X96092136Y-66157864D01*
X95942136Y-66007864D02*
X96992136Y-66007864D01*
X95942136Y-80657864D02*
X95942136Y-81857864D01*
X111492136Y-81557864D02*
X96092136Y-81557864D01*
%TO.C,LED10*%
X180207136Y-71593864D02*
X180207136Y-71437864D01*
X180207136Y-69277864D02*
X180207136Y-69121864D01*
X180207136Y-71593380D02*
G75*
G02*
X176974801Y-71436472I-1560000J1235516D01*
G01*
X179688097Y-71437864D02*
G75*
G02*
X177606006Y-71437701I-1040961J1080000D01*
G01*
X177606006Y-69278027D02*
G75*
G02*
X179688097Y-69277864I1041130J-1079837D01*
G01*
X176974801Y-69279256D02*
G75*
G02*
X180207136Y-69122348I1672335J-1078608D01*
G01*
%TO.C,LED9*%
X174207136Y-85093864D02*
X174207136Y-84937864D01*
X174207136Y-82777864D02*
X174207136Y-82621864D01*
X174207136Y-85093380D02*
G75*
G02*
X170974801Y-84936472I-1560000J1235516D01*
G01*
X173688097Y-84937864D02*
G75*
G02*
X171606006Y-84937701I-1040961J1080000D01*
G01*
X171606006Y-82778027D02*
G75*
G02*
X173688097Y-82777864I1041130J-1079837D01*
G01*
X170974801Y-82779256D02*
G75*
G02*
X174207136Y-82622348I1672335J-1078608D01*
G01*
%TO.C,LED8*%
X167707136Y-98593864D02*
X167707136Y-98437864D01*
X167707136Y-96277864D02*
X167707136Y-96121864D01*
X167707136Y-98593380D02*
G75*
G02*
X164474801Y-98436472I-1560000J1235516D01*
G01*
X167188097Y-98437864D02*
G75*
G02*
X165106006Y-98437701I-1040961J1080000D01*
G01*
X165106006Y-96278027D02*
G75*
G02*
X167188097Y-96277864I1041130J-1079837D01*
G01*
X164474801Y-96279256D02*
G75*
G02*
X167707136Y-96122348I1672335J-1078608D01*
G01*
%TO.C,LED7*%
X160707136Y-71593864D02*
X160707136Y-71437864D01*
X160707136Y-69277864D02*
X160707136Y-69121864D01*
X160707136Y-71593380D02*
G75*
G02*
X157474801Y-71436472I-1560000J1235516D01*
G01*
X160188097Y-71437864D02*
G75*
G02*
X158106006Y-71437701I-1040961J1080000D01*
G01*
X158106006Y-69278027D02*
G75*
G02*
X160188097Y-69277864I1041130J-1079837D01*
G01*
X157474801Y-69279256D02*
G75*
G02*
X160707136Y-69122348I1672335J-1078608D01*
G01*
%TO.C,LED6*%
X153707136Y-85093864D02*
X153707136Y-84937864D01*
X153707136Y-82777864D02*
X153707136Y-82621864D01*
X153707136Y-85093380D02*
G75*
G02*
X150474801Y-84936472I-1560000J1235516D01*
G01*
X153188097Y-84937864D02*
G75*
G02*
X151106006Y-84937701I-1040961J1080000D01*
G01*
X151106006Y-82778027D02*
G75*
G02*
X153188097Y-82777864I1041130J-1079837D01*
G01*
X150474801Y-82779256D02*
G75*
G02*
X153707136Y-82622348I1672335J-1078608D01*
G01*
%TO.C,LED5*%
X147707136Y-97593864D02*
X147707136Y-97437864D01*
X147707136Y-95277864D02*
X147707136Y-95121864D01*
X147707136Y-97593380D02*
G75*
G02*
X144474801Y-97436472I-1560000J1235516D01*
G01*
X147188097Y-97437864D02*
G75*
G02*
X145106006Y-97437701I-1040961J1080000D01*
G01*
X145106006Y-95278027D02*
G75*
G02*
X147188097Y-95277864I1041130J-1079837D01*
G01*
X144474801Y-95279256D02*
G75*
G02*
X147707136Y-95122348I1672335J-1078608D01*
G01*
%TO.C,LED4*%
X140207136Y-71593864D02*
X140207136Y-71437864D01*
X140207136Y-69277864D02*
X140207136Y-69121864D01*
X140207136Y-71593380D02*
G75*
G02*
X136974801Y-71436472I-1560000J1235516D01*
G01*
X139688097Y-71437864D02*
G75*
G02*
X137606006Y-71437701I-1040961J1080000D01*
G01*
X137606006Y-69278027D02*
G75*
G02*
X139688097Y-69277864I1041130J-1079837D01*
G01*
X136974801Y-69279256D02*
G75*
G02*
X140207136Y-69122348I1672335J-1078608D01*
G01*
%TO.C,LED3*%
X136207136Y-81093864D02*
X136207136Y-80937864D01*
X136207136Y-78777864D02*
X136207136Y-78621864D01*
X136207136Y-81093380D02*
G75*
G02*
X132974801Y-80936472I-1560000J1235516D01*
G01*
X135688097Y-80937864D02*
G75*
G02*
X133606006Y-80937701I-1040961J1080000D01*
G01*
X133606006Y-78778027D02*
G75*
G02*
X135688097Y-78777864I1041130J-1079837D01*
G01*
X132974801Y-78779256D02*
G75*
G02*
X136207136Y-78622348I1672335J-1078608D01*
G01*
%TO.C,LED2*%
X131442136Y-90593864D02*
X131442136Y-90437864D01*
X131442136Y-88277864D02*
X131442136Y-88121864D01*
X131442136Y-90593380D02*
G75*
G02*
X128209801Y-90436472I-1560000J1235516D01*
G01*
X130923097Y-90437864D02*
G75*
G02*
X128841006Y-90437701I-1040961J1080000D01*
G01*
X128841006Y-88278027D02*
G75*
G02*
X130923097Y-88277864I1041130J-1079837D01*
G01*
X128209801Y-88279256D02*
G75*
G02*
X131442136Y-88122348I1672335J-1078608D01*
G01*
%TO.C,LED1*%
X126942136Y-98593864D02*
X126942136Y-98437864D01*
X126942136Y-96277864D02*
X126942136Y-96121864D01*
X126942136Y-98593380D02*
G75*
G02*
X123709801Y-98436472I-1560000J1235516D01*
G01*
X126423097Y-98437864D02*
G75*
G02*
X124341006Y-98437701I-1040961J1080000D01*
G01*
X124341006Y-96278027D02*
G75*
G02*
X126423097Y-96277864I1041130J-1079837D01*
G01*
X123709801Y-96279256D02*
G75*
G02*
X126942136Y-96122348I1672335J-1078608D01*
G01*
%TO.C,KEY5*%
X155250000Y-111705765D02*
X155250000Y-113205765D01*
X156500000Y-115705765D02*
X161000000Y-115705765D01*
X161000000Y-109205765D02*
X156500000Y-109205765D01*
X162250000Y-113205765D02*
X162250000Y-111705765D01*
%TO.C,C2*%
X160113070Y-63421949D02*
X160113070Y-64844453D01*
X161933070Y-63421949D02*
X161933070Y-64844453D01*
%TO.C,KEY4*%
X135000000Y-111705765D02*
X135000000Y-113205765D01*
X136250000Y-115705765D02*
X140750000Y-115705765D01*
X140750000Y-109205765D02*
X136250000Y-109205765D01*
X142000000Y-113205765D02*
X142000000Y-111705765D01*
%TO.C,R10*%
X172915072Y-69447864D02*
X174369200Y-69447864D01*
X172915072Y-71267864D02*
X174369200Y-71267864D01*
%TO.C,R8*%
X146415072Y-82947864D02*
X147869200Y-82947864D01*
X146415072Y-84767864D02*
X147869200Y-84767864D01*
%TO.C,R7*%
X166915072Y-82947864D02*
X168369200Y-82947864D01*
X166915072Y-84767864D02*
X168369200Y-84767864D01*
%TO.C,J1*%
X112940000Y-52290000D02*
X112940000Y-64010000D01*
X112940000Y-64010000D02*
X114360000Y-64010000D01*
X114360000Y-64010000D02*
X114360000Y-59510000D01*
X115250000Y-52900000D02*
X115250000Y-58400000D01*
X115250000Y-58400000D02*
X115750000Y-58400000D01*
X115750000Y-52900000D02*
X115250000Y-52900000D01*
X115750000Y-58400000D02*
X115750000Y-52900000D01*
X117750000Y-52900000D02*
X117750000Y-58400000D01*
X117750000Y-58400000D02*
X118250000Y-58400000D01*
X118250000Y-52900000D02*
X117750000Y-52900000D01*
X118250000Y-58400000D02*
X118250000Y-52900000D01*
X119250000Y-52290000D02*
X112940000Y-52290000D01*
X119250000Y-52290000D02*
X125560000Y-52290000D01*
X120250000Y-52900000D02*
X120250000Y-58400000D01*
X120250000Y-58400000D02*
X120750000Y-58400000D01*
X120750000Y-52900000D02*
X120250000Y-52900000D01*
X120750000Y-58400000D02*
X120750000Y-52900000D01*
X122700000Y-62100000D02*
X123000000Y-61500000D01*
X122750000Y-52900000D02*
X122750000Y-58400000D01*
X122750000Y-58400000D02*
X123250000Y-58400000D01*
X123000000Y-61500000D02*
X123300000Y-62100000D01*
X123250000Y-52900000D02*
X122750000Y-52900000D01*
X123250000Y-58400000D02*
X123250000Y-52900000D01*
X123300000Y-62100000D02*
X122700000Y-62100000D01*
X124140000Y-64010000D02*
X124140000Y-59510000D01*
X125560000Y-52290000D02*
X125560000Y-64010000D01*
X125560000Y-64010000D02*
X124140000Y-64010000D01*
%TO.C,KEY2*%
X115000000Y-111750000D02*
X115000000Y-113250000D01*
X116250000Y-115750000D02*
X120750000Y-115750000D01*
X120750000Y-109250000D02*
X116250000Y-109250000D01*
X122000000Y-113250000D02*
X122000000Y-111750000D01*
%TO.C,R6*%
X160415072Y-96447864D02*
X161869200Y-96447864D01*
X160415072Y-98267864D02*
X161869200Y-98267864D01*
%TO.C,TP2*%
X136700000Y-62500000D02*
G75*
G02*
X134300000Y-62500000I-1200000J0D01*
G01*
X134300000Y-62500000D02*
G75*
G02*
X136700000Y-62500000I1200000J0D01*
G01*
%TO.C,R11*%
X153415072Y-69447864D02*
X154869200Y-69447864D01*
X153415072Y-71267864D02*
X154869200Y-71267864D01*
%TO.C,KEY6*%
X175250000Y-111799494D02*
X175250000Y-113299494D01*
X176500000Y-115799494D02*
X181000000Y-115799494D01*
X181000000Y-109299494D02*
X176500000Y-109299494D01*
X182250000Y-113299494D02*
X182250000Y-111799494D01*
%TO.C,KEY3*%
X115000000Y-68750000D02*
X115000000Y-70250000D01*
X116250000Y-72750000D02*
X120750000Y-72750000D01*
X120750000Y-66250000D02*
X116250000Y-66250000D01*
X122000000Y-70250000D02*
X122000000Y-68750000D01*
%TO.C,R9*%
X128915072Y-78947864D02*
X130369200Y-78947864D01*
X128915072Y-80767864D02*
X130369200Y-80767864D01*
%TO.C,C4*%
X107788748Y-56090000D02*
X109211252Y-56090000D01*
X107788748Y-57910000D02*
X109211252Y-57910000D01*
%TO.C,R12*%
X132915072Y-69447864D02*
X134369200Y-69447864D01*
X132915072Y-71267864D02*
X134369200Y-71267864D01*
%TO.C,R3*%
X119732136Y-92305800D02*
X119732136Y-93759928D01*
X121552136Y-92305800D02*
X121552136Y-93759928D01*
%TO.C,U2*%
X165590000Y-57590000D02*
X166850000Y-57590000D01*
X165590000Y-61350000D02*
X165590000Y-57590000D01*
X172410000Y-57590000D02*
X171150000Y-57590000D01*
X172410000Y-61350000D02*
X172410000Y-57590000D01*
X165690000Y-62630000D02*
X165360000Y-62870000D01*
X165360000Y-62390000D01*
X165690000Y-62630000D01*
G36*
X165690000Y-62630000D02*
G01*
X165360000Y-62870000D01*
X165360000Y-62390000D01*
X165690000Y-62630000D01*
G37*
%TO.C,R4*%
X140415072Y-95447864D02*
X141869200Y-95447864D01*
X140415072Y-97267864D02*
X141869200Y-97267864D01*
%TO.C,J3*%
X103130000Y-108440000D02*
X103130000Y-111100000D01*
X103130000Y-111100000D02*
X108330000Y-111100000D01*
X104080000Y-108042929D02*
X104080000Y-108440000D01*
X104080000Y-117100000D02*
X104080000Y-111100000D01*
X104840000Y-108042929D02*
X104840000Y-108440000D01*
X104840000Y-111100000D02*
X104840000Y-117100000D01*
X104840000Y-117100000D02*
X104080000Y-117100000D01*
X105730000Y-108440000D02*
X105730000Y-111100000D01*
X106620000Y-108110000D02*
X106620000Y-108440000D01*
X106620000Y-117100000D02*
X106620000Y-111100000D01*
X106720000Y-111100000D02*
X106720000Y-117100000D01*
X106840000Y-111100000D02*
X106840000Y-117100000D01*
X106960000Y-111100000D02*
X106960000Y-117100000D01*
X107000000Y-105730000D02*
X108270000Y-105730000D01*
X107080000Y-111100000D02*
X107080000Y-117100000D01*
X107200000Y-111100000D02*
X107200000Y-117100000D01*
X107320000Y-111100000D02*
X107320000Y-117100000D01*
X107380000Y-108110000D02*
X107380000Y-108440000D01*
X107380000Y-111100000D02*
X107380000Y-117100000D01*
X107380000Y-117100000D02*
X106620000Y-117100000D01*
X108270000Y-105730000D02*
X108270000Y-107000000D01*
X108330000Y-108440000D02*
X103130000Y-108440000D01*
X108330000Y-111100000D02*
X108330000Y-108440000D01*
%TO.C,U3*%
X151060000Y-125490000D02*
X148460000Y-125490000D01*
X151060000Y-125840000D02*
X151060000Y-125490000D01*
X151060000Y-128160000D02*
X151060000Y-128500000D01*
X151060000Y-128500000D02*
X145970000Y-128500000D01*
X150560000Y-128500000D02*
G75*
G02*
X146360083Y-128501736I-2100000J100000D01*
G01*
%TO.C,C3*%
X174479008Y-63448621D02*
X174479008Y-64871125D01*
X176299008Y-63448621D02*
X176299008Y-64871125D01*
%TO.C,R1*%
X109227064Y-59090000D02*
X107772936Y-59090000D01*
X109227064Y-60910000D02*
X107772936Y-60910000D01*
%TO.C,R5*%
X123915072Y-88447864D02*
X125369200Y-88447864D01*
X123915072Y-90267864D02*
X125369200Y-90267864D01*
%TD*%
M02*
