M48
; DRILL file {KiCad 8.0.6} date 2025-01-12T15:08:14+0000
; FORMAT={-:-/ absolute / inch / decimal}
; #@! TF.CreationDate,2025-01-12T15:08:14+00:00
; #@! TF.GenerationSoftware,Kicad,Pcbnew,8.0.6
; #@! TF.FileFunction,Plated,1,2,PTH
FMAT,2
INCH
; #@! TA.AperFunction,Plated,PTH,ViaDrill
T1C0.0118
; #@! TA.AperFunction,Plated,PTH,ViaDrill
T2C0.0236
; #@! TA.AperFunction,Plated,PTH,ComponentDrill
T3C0.0354
; #@! TA.AperFunction,Plated,PTH,ComponentDrill
T4C0.0374
; #@! TA.AperFunction,Plated,PTH,ComponentDrill
T5C0.0394
; #@! TA.AperFunction,Plated,PTH,ComponentDrill
T6C0.0433
%
G90
G05
T1
X4.0187Y-2.9754
X4.0213Y-2.8428
X4.0213Y-2.9078
X4.0863Y-2.8428
X4.0863Y-2.9078
X4.0863Y-2.9728
X4.1513Y-2.8428
X4.1513Y-2.9078
X4.1522Y-2.9737
T2
X3.8583Y-3.3071
X4.3993Y-2.3622
X4.5866Y-4.2126
X5.8449Y-4.685
X6.6535Y-2.5831
X7.0866Y-2.4213
T3
X4.8863Y-3.833
X4.9863Y-3.833
X5.0635Y-3.518
X5.1635Y-3.518
X5.2511Y-3.144
X5.3511Y-3.144
X5.4085Y-2.77
X5.5085Y-2.77
X5.7038Y-3.7936
X5.7449Y-5.0
X5.8038Y-3.7936
X5.8449Y-5.0
X5.94Y-3.3015
X5.9449Y-5.0
X6.04Y-3.3015
X6.2156Y-2.77
X6.3156Y-2.77
X6.4912Y-3.833
X6.5912Y-3.833
X6.7471Y-3.3015
X6.8471Y-3.3015
X6.9834Y-2.77
X7.0834Y-2.77
T4
X4.5472Y-2.3622
X4.6457Y-2.3622
X4.7441Y-2.3622
X4.8425Y-2.3622
T5
X4.1126Y-4.2126
X4.2126Y-4.2126
T6
X4.5374Y-2.6476
X4.5374Y-2.8248
X4.5374Y-4.3406
X4.5374Y-4.5177
X4.7933Y-2.6476
X4.7933Y-2.8248
X4.7933Y-4.3406
X4.7933Y-4.5177
X5.3248Y-4.3388
X5.3248Y-4.516
X5.5807Y-4.3388
X5.5807Y-4.516
X6.122Y-4.3388
X6.122Y-4.516
X6.378Y-4.3388
X6.378Y-4.516
X6.9094Y-4.3425
X6.9094Y-4.5197
X7.1654Y-4.3425
X7.1654Y-4.5197
M30
