%TF.GenerationSoftware,KiCad,Pcbnew,8.0.6*%
%TF.CreationDate,2025-01-12T15:08:07+00:00*%
%TF.ProjectId,smart-fan,736d6172-742d-4666-916e-2e6b69636164,rev?*%
%TF.SameCoordinates,Original*%
%TF.FileFunction,Copper,L1,Top*%
%TF.FilePolarity,Positive*%
%FSLAX46Y46*%
G04 Gerber Fmt 4.6, Leading zero omitted, Abs format (unit mm)*
G04 Created by KiCad (PCBNEW 8.0.6) date 2025-01-12 15:08:07*
%MOMM*%
%LPD*%
G01*
G04 APERTURE LIST*
G04 Aperture macros list*
%AMRoundRect*
0 Rectangle with rounded corners*
0 $1 Rounding radius*
0 $2 $3 $4 $5 $6 $7 $8 $9 X,Y pos of 4 corners*
0 Add a 4 corners polygon primitive as box body*
4,1,4,$2,$3,$4,$5,$6,$7,$8,$9,$2,$3,0*
0 Add four circle primitives for the rounded corners*
1,1,$1+$1,$2,$3*
1,1,$1+$1,$4,$5*
1,1,$1+$1,$6,$7*
1,1,$1+$1,$8,$9*
0 Add four rect primitives between the rounded corners*
20,1,$1+$1,$2,$3,$4,$5,0*
20,1,$1+$1,$4,$5,$6,$7,0*
20,1,$1+$1,$6,$7,$8,$9,0*
20,1,$1+$1,$8,$9,$2,$3,0*%
%AMFreePoly0*
4,1,6,0.600000,-0.600000,-0.600000,-0.600000,-0.600000,0.000000,0.000000,0.600000,0.600000,0.600000,0.600000,-0.600000,0.600000,-0.600000,$1*%
G04 Aperture macros list end*
%TA.AperFunction,SMDPad,CuDef*%
%ADD10R,0.400000X0.800000*%
%TD*%
%TA.AperFunction,SMDPad,CuDef*%
%ADD11R,0.800000X0.400000*%
%TD*%
%TA.AperFunction,SMDPad,CuDef*%
%ADD12R,1.200000X1.200000*%
%TD*%
%TA.AperFunction,SMDPad,CuDef*%
%ADD13FreePoly0,90.000000*%
%TD*%
%TA.AperFunction,SMDPad,CuDef*%
%ADD14R,0.800000X0.800000*%
%TD*%
%TA.AperFunction,ComponentPad*%
%ADD15R,1.800000X1.800000*%
%TD*%
%TA.AperFunction,ComponentPad*%
%ADD16C,1.800000*%
%TD*%
%TA.AperFunction,ComponentPad*%
%ADD17C,2.000000*%
%TD*%
%TA.AperFunction,SMDPad,CuDef*%
%ADD18RoundRect,0.250000X-0.650000X0.325000X-0.650000X-0.325000X0.650000X-0.325000X0.650000X0.325000X0*%
%TD*%
%TA.AperFunction,SMDPad,CuDef*%
%ADD19RoundRect,0.250000X-0.312500X-0.625000X0.312500X-0.625000X0.312500X0.625000X-0.312500X0.625000X0*%
%TD*%
%TA.AperFunction,ComponentPad*%
%ADD20RoundRect,0.250000X0.600000X0.725000X-0.600000X0.725000X-0.600000X-0.725000X0.600000X-0.725000X0*%
%TD*%
%TA.AperFunction,ComponentPad*%
%ADD21O,1.700000X1.950000*%
%TD*%
%TA.AperFunction,SMDPad,CuDef*%
%ADD22C,2.000000*%
%TD*%
%TA.AperFunction,SMDPad,CuDef*%
%ADD23RoundRect,0.250000X-0.325000X-0.650000X0.325000X-0.650000X0.325000X0.650000X-0.325000X0.650000X0*%
%TD*%
%TA.AperFunction,SMDPad,CuDef*%
%ADD24RoundRect,0.250000X-0.625000X0.312500X-0.625000X-0.312500X0.625000X-0.312500X0.625000X0.312500X0*%
%TD*%
%TA.AperFunction,SMDPad,CuDef*%
%ADD25RoundRect,0.375000X0.375000X-0.625000X0.375000X0.625000X-0.375000X0.625000X-0.375000X-0.625000X0*%
%TD*%
%TA.AperFunction,SMDPad,CuDef*%
%ADD26RoundRect,0.500000X1.400000X-0.500000X1.400000X0.500000X-1.400000X0.500000X-1.400000X-0.500000X0*%
%TD*%
%TA.AperFunction,ComponentPad*%
%ADD27R,1.700000X1.700000*%
%TD*%
%TA.AperFunction,ComponentPad*%
%ADD28O,1.700000X1.700000*%
%TD*%
%TA.AperFunction,ComponentPad*%
%ADD29RoundRect,0.250200X-0.649800X-0.649800X0.649800X-0.649800X0.649800X0.649800X-0.649800X0.649800X0*%
%TD*%
%TA.AperFunction,SMDPad,CuDef*%
%ADD30RoundRect,0.250000X0.312500X0.625000X-0.312500X0.625000X-0.312500X-0.625000X0.312500X-0.625000X0*%
%TD*%
%TA.AperFunction,ViaPad*%
%ADD31C,0.900000*%
%TD*%
%TA.AperFunction,ViaPad*%
%ADD32C,0.600000*%
%TD*%
%TA.AperFunction,Conductor*%
%ADD33C,1.000000*%
%TD*%
%TA.AperFunction,Conductor*%
%ADD34C,0.300000*%
%TD*%
%TA.AperFunction,Conductor*%
%ADD35C,0.200000*%
%TD*%
%TA.AperFunction,Conductor*%
%ADD36C,0.400000*%
%TD*%
%TA.AperFunction,Conductor*%
%ADD37C,0.500000*%
%TD*%
%TA.AperFunction,Conductor*%
%ADD38C,0.800000*%
%TD*%
G04 APERTURE END LIST*
D10*
%TO.P,U1,1,GND*%
%TO.N,GND*%
X97842136Y-80857864D03*
%TO.P,U1,2,GND*%
X98692136Y-80857864D03*
%TO.P,U1,3,3V3*%
%TO.N,+3.3V*%
X99542136Y-80857864D03*
%TO.P,U1,4,IO0*%
%TO.N,Net-(J3-Pin_2)*%
X100392136Y-80857864D03*
%TO.P,U1,5,IO1*%
%TO.N,unconnected-(U1-IO1-Pad5)*%
X101242136Y-80857864D03*
%TO.P,U1,6,IO2*%
%TO.N,unconnected-(U1-IO2-Pad6)*%
X102092136Y-80857864D03*
%TO.P,U1,7,IO3*%
%TO.N,unconnected-(U1-IO3-Pad7)*%
X102942136Y-80857864D03*
%TO.P,U1,8,IO4*%
%TO.N,unconnected-(U1-IO4-Pad8)*%
X103792136Y-80857864D03*
%TO.P,U1,9,IO5*%
%TO.N,unconnected-(U1-IO5-Pad9)*%
X104642136Y-80857864D03*
%TO.P,U1,10,IO6*%
%TO.N,unconnected-(U1-IO6-Pad10)*%
X105492136Y-80857864D03*
%TO.P,U1,11,IO7*%
%TO.N,IR RECEIVER*%
X106342136Y-80857864D03*
%TO.P,U1,12,IO8*%
%TO.N,TIMER KEY*%
X107192136Y-80857864D03*
%TO.P,U1,13,IO9*%
%TO.N,MODE KEY*%
X108042136Y-80857864D03*
%TO.P,U1,14,IO10*%
%TO.N,SPEED KEY*%
X108892136Y-80857864D03*
%TO.P,U1,15,IO11*%
%TO.N,ON{slash}OFF KEY*%
X109742136Y-80857864D03*
D11*
%TO.P,U1,16,IO12*%
%TO.N,0.5H LED*%
X110792136Y-79807864D03*
%TO.P,U1,17,IO13*%
%TO.N,1H LED*%
X110792136Y-78957864D03*
%TO.P,U1,18,IO14*%
%TO.N,NOR LED*%
X110792136Y-78107864D03*
%TO.P,U1,19,IO15*%
%TO.N,L LED*%
X110792136Y-77257864D03*
%TO.P,U1,20,IO16*%
%TO.N,2H LED*%
X110792136Y-76407864D03*
%TO.P,U1,21,IO17*%
%TO.N,RHY LED*%
X110792136Y-75557864D03*
%TO.P,U1,22,IO18*%
%TO.N,M LED*%
X110792136Y-74707864D03*
%TO.P,U1,23,IO19*%
%TO.N,H LED*%
X110792136Y-73857864D03*
%TO.P,U1,24,IO20*%
%TO.N,SLP LED*%
X110792136Y-73007864D03*
%TO.P,U1,25,IO21*%
%TO.N,4H LED*%
X110792136Y-72157864D03*
%TO.P,U1,26,IO26*%
%TO.N,unconnected-(U1-IO26-Pad26)*%
X110792136Y-71307864D03*
%TO.P,U1,27,IO47*%
%TO.N,unconnected-(U1-IO47-Pad27)*%
X110792136Y-70457864D03*
%TO.P,U1,28,IO33*%
%TO.N,unconnected-(U1-IO33-Pad28)*%
X110792136Y-69607864D03*
%TO.P,U1,29,IO34*%
%TO.N,SW KEY*%
X110792136Y-68757864D03*
%TO.P,U1,30,IO48*%
%TO.N,unconnected-(U1-IO48-Pad30)*%
X110792136Y-67907864D03*
D10*
%TO.P,U1,31,IO35*%
%TO.N,unconnected-(U1-IO35-Pad31)*%
X109742136Y-66857864D03*
%TO.P,U1,32,IO36*%
%TO.N,unconnected-(U1-IO36-Pad32)*%
X108892136Y-66857864D03*
%TO.P,U1,33,IO37*%
%TO.N,unconnected-(U1-IO37-Pad33)*%
X108042136Y-66857864D03*
%TO.P,U1,34,IO38*%
%TO.N,unconnected-(U1-IO38-Pad34)*%
X107192136Y-66857864D03*
%TO.P,U1,35,IO39*%
%TO.N,unconnected-(U1-IO39-Pad35)*%
X106342136Y-66857864D03*
%TO.P,U1,36,IO40*%
%TO.N,unconnected-(U1-IO40-Pad36)*%
X105492136Y-66857864D03*
%TO.P,U1,37,IO41*%
%TO.N,unconnected-(U1-IO41-Pad37)*%
X104642136Y-66857864D03*
%TO.P,U1,38,IO42*%
%TO.N,unconnected-(U1-IO42-Pad38)*%
X103792136Y-66857864D03*
%TO.P,U1,39,TXD0*%
%TO.N,RX*%
X102942136Y-66857864D03*
%TO.P,U1,40,RXD0*%
%TO.N,TX*%
X102092136Y-66857864D03*
%TO.P,U1,41,IO45*%
%TO.N,unconnected-(U1-IO45-Pad41)*%
X101242136Y-66857864D03*
%TO.P,U1,42,GND*%
%TO.N,GND*%
X100392136Y-66857864D03*
%TO.P,U1,43,GND*%
X99542136Y-66857864D03*
%TO.P,U1,44,IO46*%
%TO.N,unconnected-(U1-IO46-Pad44)*%
X98692136Y-66857864D03*
%TO.P,U1,45,EN*%
%TO.N,Net-(U1-EN)*%
X97842136Y-66857864D03*
D11*
%TO.P,U1,46,GND*%
%TO.N,GND*%
X96792136Y-67907864D03*
%TO.P,U1,47,GND*%
X96792136Y-68757864D03*
%TO.P,U1,48,GND*%
X96792136Y-69607864D03*
%TO.P,U1,49,GND*%
X96792136Y-70457864D03*
%TO.P,U1,50,GND*%
X96792136Y-71307864D03*
%TO.P,U1,51,GND*%
X96792136Y-72157864D03*
%TO.P,U1,52,GND*%
X96792136Y-73007864D03*
%TO.P,U1,53,GND*%
X96792136Y-73857864D03*
%TO.P,U1,54,GND*%
X96792136Y-74707864D03*
%TO.P,U1,55,GND*%
X96792136Y-75557864D03*
%TO.P,U1,56,GND*%
X96792136Y-76407864D03*
%TO.P,U1,57,GND*%
X96792136Y-77257864D03*
%TO.P,U1,58,GND*%
X96792136Y-78107864D03*
%TO.P,U1,59,GND*%
X96792136Y-78957864D03*
%TO.P,U1,60,GND*%
X96792136Y-79807864D03*
D12*
%TO.P,U1,61,GND*%
X103792136Y-75507864D03*
X105442136Y-72207864D03*
X102142136Y-72207864D03*
X102142136Y-73857864D03*
X103792136Y-72207864D03*
X103792136Y-73857864D03*
X105442136Y-73857864D03*
X105442136Y-75507864D03*
D13*
X102142136Y-75507864D03*
D14*
%TO.P,U1,62,GND*%
X96792136Y-80857864D03*
%TO.P,U1,63,GND*%
X110792136Y-80857864D03*
%TO.P,U1,64,GND*%
X110792136Y-66857864D03*
%TO.P,U1,65,GND*%
X96792136Y-66857864D03*
%TD*%
D15*
%TO.P,LED10,1,K*%
%TO.N,GND*%
X179917136Y-70357864D03*
D16*
%TO.P,LED10,2,A*%
%TO.N,Net-(LED10-A)*%
X177377136Y-70357864D03*
%TD*%
D15*
%TO.P,LED9,1,K*%
%TO.N,GND*%
X173917136Y-83857864D03*
D16*
%TO.P,LED9,2,A*%
%TO.N,Net-(LED9-A)*%
X171377136Y-83857864D03*
%TD*%
D15*
%TO.P,LED8,1,K*%
%TO.N,GND*%
X167417136Y-97357864D03*
D16*
%TO.P,LED8,2,A*%
%TO.N,Net-(LED8-A)*%
X164877136Y-97357864D03*
%TD*%
D15*
%TO.P,LED7,1,K*%
%TO.N,GND*%
X160417136Y-70357864D03*
D16*
%TO.P,LED7,2,A*%
%TO.N,Net-(LED7-A)*%
X157877136Y-70357864D03*
%TD*%
D15*
%TO.P,LED6,1,K*%
%TO.N,GND*%
X153417136Y-83857864D03*
D16*
%TO.P,LED6,2,A*%
%TO.N,Net-(LED6-A)*%
X150877136Y-83857864D03*
%TD*%
D15*
%TO.P,LED5,1,K*%
%TO.N,GND*%
X147417136Y-96357864D03*
D16*
%TO.P,LED5,2,A*%
%TO.N,Net-(LED5-A)*%
X144877136Y-96357864D03*
%TD*%
D15*
%TO.P,LED4,1,K*%
%TO.N,GND*%
X139917136Y-70357864D03*
D16*
%TO.P,LED4,2,A*%
%TO.N,Net-(LED4-A)*%
X137377136Y-70357864D03*
%TD*%
D15*
%TO.P,LED3,1,K*%
%TO.N,GND*%
X135917136Y-79857864D03*
D16*
%TO.P,LED3,2,A*%
%TO.N,Net-(LED3-A)*%
X133377136Y-79857864D03*
%TD*%
D15*
%TO.P,LED2,1,K*%
%TO.N,GND*%
X131152136Y-89357864D03*
D16*
%TO.P,LED2,2,A*%
%TO.N,Net-(LED2-A)*%
X128612136Y-89357864D03*
%TD*%
D15*
%TO.P,LED1,1,K*%
%TO.N,GND*%
X126652136Y-97357864D03*
D16*
%TO.P,LED1,2,A*%
%TO.N,Net-(LED1-A)*%
X124112136Y-97357864D03*
%TD*%
D17*
%TO.P,KEY5,1,1*%
%TO.N,SPEED KEY*%
X155500000Y-110205765D03*
X162000000Y-110205765D03*
%TO.P,KEY5,2,2*%
%TO.N,GND*%
X155500000Y-114705765D03*
X162000000Y-114705765D03*
%TD*%
D18*
%TO.P,C2,1*%
%TO.N,+5V*%
X161023070Y-62658201D03*
%TO.P,C2,2*%
%TO.N,GND*%
X161023070Y-65608201D03*
%TD*%
D17*
%TO.P,KEY4,1,1*%
%TO.N,MODE KEY*%
X135250000Y-110205765D03*
X141750000Y-110205765D03*
%TO.P,KEY4,2,2*%
%TO.N,GND*%
X135250000Y-114705765D03*
X141750000Y-114705765D03*
%TD*%
D19*
%TO.P,R10,1*%
%TO.N,H LED*%
X172179636Y-70357864D03*
%TO.P,R10,2*%
%TO.N,Net-(LED10-A)*%
X175104636Y-70357864D03*
%TD*%
%TO.P,R8,1*%
%TO.N,RHY LED*%
X145679636Y-83857864D03*
%TO.P,R8,2*%
%TO.N,Net-(LED6-A)*%
X148604636Y-83857864D03*
%TD*%
%TO.P,R7,1*%
%TO.N,M LED*%
X166179636Y-83857864D03*
%TO.P,R7,2*%
%TO.N,Net-(LED9-A)*%
X169104636Y-83857864D03*
%TD*%
D20*
%TO.P,J1,1,Pin_1*%
%TO.N,GND*%
X123000000Y-60000000D03*
D21*
%TO.P,J1,2,Pin_2*%
%TO.N,+5V*%
X120500000Y-60000000D03*
%TO.P,J1,3,Pin_3*%
%TO.N,RX*%
X118000000Y-60000000D03*
%TO.P,J1,4,Pin_4*%
%TO.N,TX*%
X115500000Y-60000000D03*
%TD*%
D17*
%TO.P,KEY2,1,1*%
%TO.N,TIMER KEY*%
X115250000Y-110250000D03*
X121750000Y-110250000D03*
%TO.P,KEY2,2,2*%
%TO.N,GND*%
X115250000Y-114750000D03*
X121750000Y-114750000D03*
%TD*%
D19*
%TO.P,R6,1*%
%TO.N,L LED*%
X159679636Y-97357864D03*
%TO.P,R6,2*%
%TO.N,Net-(LED8-A)*%
X162604636Y-97357864D03*
%TD*%
D22*
%TO.P,TP2,1,1*%
%TO.N,+5V*%
X135500000Y-62500000D03*
%TD*%
D19*
%TO.P,R11,1*%
%TO.N,SLP LED*%
X152679636Y-70357864D03*
%TO.P,R11,2*%
%TO.N,Net-(LED7-A)*%
X155604636Y-70357864D03*
%TD*%
D17*
%TO.P,KEY6,1,1*%
%TO.N,ON{slash}OFF KEY*%
X175500000Y-110299494D03*
X182000000Y-110299494D03*
%TO.P,KEY6,2,2*%
%TO.N,GND*%
X175500000Y-114799494D03*
X182000000Y-114799494D03*
%TD*%
%TO.P,KEY3,1,1*%
%TO.N,SW KEY*%
X115250000Y-67250000D03*
X121750000Y-67250000D03*
%TO.P,KEY3,2,2*%
%TO.N,GND*%
X115250000Y-71750000D03*
X121750000Y-71750000D03*
%TD*%
D19*
%TO.P,R9,1*%
%TO.N,2H LED*%
X128179636Y-79857864D03*
%TO.P,R9,2*%
%TO.N,Net-(LED3-A)*%
X131104636Y-79857864D03*
%TD*%
D23*
%TO.P,C4,1*%
%TO.N,Net-(U1-EN)*%
X107025000Y-57000000D03*
%TO.P,C4,2*%
%TO.N,GND*%
X109975000Y-57000000D03*
%TD*%
D19*
%TO.P,R12,1*%
%TO.N,4H LED*%
X132179636Y-70357864D03*
%TO.P,R12,2*%
%TO.N,Net-(LED4-A)*%
X135104636Y-70357864D03*
%TD*%
D24*
%TO.P,R3,1*%
%TO.N,0.5H LED*%
X120642136Y-91570364D03*
%TO.P,R3,2*%
%TO.N,Net-(LED1-A)*%
X120642136Y-94495364D03*
%TD*%
D25*
%TO.P,U2,1,VI*%
%TO.N,+5V*%
X166700000Y-62650000D03*
%TO.P,U2,2,GND*%
%TO.N,GND*%
X169000000Y-62650000D03*
D26*
X169000000Y-56350000D03*
D25*
%TO.P,U2,3,VO*%
%TO.N,+3.3V*%
X171300000Y-62650000D03*
%TD*%
D19*
%TO.P,R4,1*%
%TO.N,NOR LED*%
X139679636Y-96357864D03*
%TO.P,R4,2*%
%TO.N,Net-(LED5-A)*%
X142604636Y-96357864D03*
%TD*%
D27*
%TO.P,J3,1,Pin_1*%
%TO.N,GND*%
X107000000Y-107000000D03*
D28*
%TO.P,J3,2,Pin_2*%
%TO.N,Net-(J3-Pin_2)*%
X104460000Y-107000000D03*
%TD*%
D29*
%TO.P,U3,1,OUT*%
%TO.N,IR RECEIVER*%
X145920000Y-127000000D03*
D16*
%TO.P,U3,2,GND*%
%TO.N,GND*%
X148460000Y-127000000D03*
%TO.P,U3,3,Vs*%
%TO.N,+3.3V*%
X151000000Y-127000000D03*
%TD*%
D18*
%TO.P,C3,1*%
%TO.N,+3.3V*%
X175389008Y-62684873D03*
%TO.P,C3,2*%
%TO.N,GND*%
X175389008Y-65634873D03*
%TD*%
D30*
%TO.P,R1,1*%
%TO.N,+3.3V*%
X109962500Y-60000000D03*
%TO.P,R1,2*%
%TO.N,Net-(U1-EN)*%
X107037500Y-60000000D03*
%TD*%
D19*
%TO.P,R5,1*%
%TO.N,1H LED*%
X123179636Y-89357864D03*
%TO.P,R5,2*%
%TO.N,Net-(LED2-A)*%
X126104636Y-89357864D03*
%TD*%
D31*
%TO.N,GND*%
X169000000Y-65611803D03*
D32*
X105442136Y-73857864D03*
X103792136Y-75507864D03*
X103792136Y-72207864D03*
X105442136Y-72207864D03*
X103792136Y-73857864D03*
D31*
X148460000Y-119000000D03*
X116500000Y-107000000D03*
D32*
X102075000Y-75575000D03*
X105467136Y-75532864D03*
X102142136Y-72207864D03*
X102142136Y-73857864D03*
D31*
%TO.N,+3.3V*%
X98000000Y-84000000D03*
X111741673Y-60000000D03*
X180000000Y-61500000D03*
%TD*%
D33*
%TO.N,+5V*%
X161023070Y-62658201D02*
X166598070Y-62658201D01*
X120500000Y-61500000D02*
X120500000Y-60000000D01*
X121658201Y-62658201D02*
X120500000Y-61500000D01*
X161023070Y-62658201D02*
X121658201Y-62658201D01*
D34*
%TO.N,GND*%
X122000000Y-57000000D02*
X109975000Y-57000000D01*
X102075000Y-75575000D02*
X102142136Y-75507864D01*
X96792136Y-66857864D02*
X96792136Y-80857864D01*
X100392136Y-70457864D02*
X102142136Y-72207864D01*
D35*
X161049742Y-65634873D02*
X161023070Y-65608201D01*
D34*
X123000000Y-58000000D02*
X122000000Y-57000000D01*
D36*
X169000000Y-62650000D02*
X169000000Y-65611803D01*
X169023070Y-65634873D02*
X161049742Y-65634873D01*
D34*
X96792136Y-80857864D02*
X98692136Y-80857864D01*
X116500000Y-107000000D02*
X107000000Y-107000000D01*
D37*
X148460000Y-127000000D02*
X148460000Y-119000000D01*
X169000000Y-56350000D02*
X169000000Y-62650000D01*
D35*
X110792136Y-80857864D02*
X105442136Y-75507864D01*
D34*
X123000000Y-60000000D02*
X123000000Y-58000000D01*
D36*
X175389008Y-65634873D02*
X169023070Y-65634873D01*
D34*
X98692136Y-80857864D02*
X98692136Y-78957864D01*
X99542136Y-66857864D02*
X100392136Y-66857864D01*
X100392136Y-66857864D02*
X100392136Y-70457864D01*
D35*
X105442136Y-75507864D02*
X105467136Y-75532864D01*
X169000000Y-65611803D02*
X169023070Y-65634873D01*
X110792136Y-66857864D02*
X105442136Y-72207864D01*
D34*
X98692136Y-78957864D02*
X102075000Y-75575000D01*
D38*
%TO.N,+3.3V*%
X171300000Y-62650000D02*
X175354135Y-62650000D01*
X175440680Y-62633201D02*
X178866799Y-62633201D01*
D36*
X98000000Y-84000000D02*
X99542136Y-82457864D01*
D35*
X175354135Y-62650000D02*
X175389008Y-62684873D01*
D36*
X99542136Y-82457864D02*
X99542136Y-80857864D01*
D34*
X111741673Y-60000000D02*
X109962500Y-60000000D01*
D38*
X178866799Y-62633201D02*
X180000000Y-61500000D01*
D34*
%TO.N,RX*%
X118000000Y-62500000D02*
X118000000Y-60000000D01*
X104642136Y-63857864D02*
X116642136Y-63857864D01*
X102942136Y-66857864D02*
X102942136Y-65557864D01*
X116642136Y-63857864D02*
X118000000Y-62500000D01*
X102942136Y-65557864D02*
X104642136Y-63857864D01*
%TO.N,TX*%
X115500000Y-62000000D02*
X115500000Y-60000000D01*
X102092136Y-65407864D02*
X104642136Y-62857864D01*
X114642136Y-62857864D02*
X115500000Y-62000000D01*
X104642136Y-62857864D02*
X114642136Y-62857864D01*
X102092136Y-66857864D02*
X102092136Y-65407864D01*
%TO.N,0.5H LED*%
X120642136Y-91570364D02*
X120642136Y-84857864D01*
X114142136Y-81857864D02*
X112092136Y-79807864D01*
X117642136Y-81857864D02*
X114142136Y-81857864D01*
X112092136Y-79807864D02*
X110792136Y-79807864D01*
X120642136Y-84857864D02*
X117642136Y-81857864D01*
%TO.N,1H LED*%
X119142136Y-80857864D02*
X123179636Y-84895364D01*
X123179636Y-84895364D02*
X123179636Y-89357864D01*
X110792136Y-78957864D02*
X112242136Y-78957864D01*
X112242136Y-78957864D02*
X114142136Y-80857864D01*
X114142136Y-80857864D02*
X119142136Y-80857864D01*
%TO.N,2H LED*%
X124142136Y-77857864D02*
X126142136Y-79857864D01*
X112692136Y-76407864D02*
X114142136Y-77857864D01*
X110792136Y-76407864D02*
X112692136Y-76407864D01*
X126142136Y-79857864D02*
X128179636Y-79857864D01*
X114142136Y-77857864D02*
X124142136Y-77857864D01*
%TO.N,4H LED*%
X126784272Y-69500000D02*
X127642136Y-70357864D01*
X127642136Y-70357864D02*
X132179636Y-70357864D01*
X114500000Y-69500000D02*
X126784272Y-69500000D01*
X111842136Y-72157864D02*
X114500000Y-69500000D01*
X110792136Y-72157864D02*
X111842136Y-72157864D01*
%TO.N,L LED*%
X122642136Y-78857864D02*
X128142136Y-84357864D01*
X128142136Y-84357864D02*
X137142136Y-84357864D01*
X110792136Y-77257864D02*
X112542136Y-77257864D01*
X112542136Y-77257864D02*
X114142136Y-78857864D01*
X114142136Y-78857864D02*
X122642136Y-78857864D01*
X151142136Y-90857864D02*
X157642136Y-97357864D01*
X143642136Y-90857864D02*
X151142136Y-90857864D01*
X157642136Y-97357864D02*
X159679636Y-97357864D01*
X137142136Y-84357864D02*
X143642136Y-90857864D01*
%TO.N,M LED*%
X112992136Y-74707864D02*
X114142136Y-75857864D01*
X154392136Y-75857864D02*
X162392136Y-83857864D01*
X162392136Y-83857864D02*
X166179636Y-83857864D01*
X110792136Y-74707864D02*
X112992136Y-74707864D01*
X114142136Y-75857864D02*
X154392136Y-75857864D01*
%TO.N,H LED*%
X172179636Y-70357864D02*
X168642136Y-70357864D01*
X110792136Y-73857864D02*
X113142136Y-73857864D01*
X113142136Y-73857864D02*
X114142136Y-74857864D01*
X164142136Y-74857864D02*
X168642136Y-70357864D01*
X114142136Y-74857864D02*
X164142136Y-74857864D01*
%TO.N,NOR LED*%
X120892136Y-79857864D02*
X126892136Y-85857864D01*
X114142136Y-79857864D02*
X120892136Y-79857864D01*
X136142136Y-89357864D02*
X136142136Y-94357864D01*
X112392136Y-78107864D02*
X114142136Y-79857864D01*
X138142136Y-96357864D02*
X139679636Y-96357864D01*
X132642136Y-85857864D02*
X136142136Y-89357864D01*
X136142136Y-94357864D02*
X138142136Y-96357864D01*
X110792136Y-78107864D02*
X112392136Y-78107864D01*
X126892136Y-85857864D02*
X132642136Y-85857864D01*
%TO.N,RHY LED*%
X110792136Y-75557864D02*
X112842136Y-75557864D01*
X144642136Y-83857864D02*
X145679636Y-83857864D01*
X112842136Y-75557864D02*
X114142136Y-76857864D01*
X137642136Y-76857864D02*
X144642136Y-83857864D01*
X114142136Y-76857864D02*
X137642136Y-76857864D01*
%TO.N,SLP LED*%
X113292136Y-73007864D02*
X114142136Y-73857864D01*
X145142136Y-73857864D02*
X148642136Y-70357864D01*
X148642136Y-70357864D02*
X152679636Y-70357864D01*
X110792136Y-73007864D02*
X113292136Y-73007864D01*
X114142136Y-73857864D02*
X145142136Y-73857864D01*
%TO.N,ON{slash}OFF KEY*%
X118767136Y-92982864D02*
X132482864Y-92982864D01*
X132482864Y-92982864D02*
X139000000Y-99500000D01*
X109742136Y-81957864D02*
X110142136Y-82357864D01*
X165799494Y-110299494D02*
X175500000Y-110299494D01*
X109742136Y-80857864D02*
X109742136Y-81957864D01*
X110142136Y-82357864D02*
X113857864Y-82357864D01*
X116142136Y-84642136D02*
X116142136Y-90357864D01*
X113857864Y-82357864D02*
X116142136Y-84642136D01*
X139000000Y-99500000D02*
X155000000Y-99500000D01*
X155000000Y-99500000D02*
X165799494Y-110299494D01*
X116142136Y-90357864D02*
X118767136Y-92982864D01*
%TO.N,SPEED KEY*%
X122284272Y-100500000D02*
X149750000Y-100500000D01*
X115313708Y-93529436D02*
X122284272Y-100500000D01*
X108892136Y-80857864D02*
X108892136Y-82232864D01*
X113154436Y-82982864D02*
X115313708Y-85142136D01*
X149750000Y-100500000D02*
X155500000Y-106250000D01*
X108892136Y-82232864D02*
X109642136Y-82982864D01*
X109642136Y-82982864D02*
X113154436Y-82982864D01*
X155500000Y-106250000D02*
X155500000Y-110205765D01*
X115313708Y-85142136D02*
X115313708Y-93529436D01*
%TO.N,MODE KEY*%
X109142136Y-83607864D02*
X112693735Y-83607864D01*
X108042136Y-80857864D02*
X108042136Y-82507864D01*
X122642136Y-103107864D02*
X122642136Y-107642136D01*
X108042136Y-82507864D02*
X109142136Y-83607864D01*
X112693735Y-83607864D02*
X114485281Y-85399410D01*
X122642136Y-107642136D02*
X125205765Y-110205765D01*
X125205765Y-110205765D02*
X135250000Y-110205765D01*
X114485281Y-94951009D02*
X122642136Y-103107864D01*
X114485281Y-85399410D02*
X114485281Y-94951009D01*
%TO.N,TIMER KEY*%
X107192136Y-82782864D02*
X108642136Y-84232864D01*
X113656854Y-96215728D02*
X113656854Y-96372582D01*
X121750000Y-110250000D02*
X121750000Y-104465728D01*
X113656854Y-85607864D02*
X113656854Y-96215728D01*
X107192136Y-80857864D02*
X107192136Y-82782864D01*
D35*
X121750000Y-104465728D02*
X121642136Y-104357864D01*
D34*
X108642136Y-84232864D02*
X112281854Y-84232864D01*
X113656854Y-96372582D02*
X121642136Y-104357864D01*
X112281854Y-84232864D02*
X113656854Y-85607864D01*
%TO.N,SW KEY*%
X110792136Y-68757864D02*
X112242136Y-68757864D01*
X112242136Y-68757864D02*
X113750000Y-67250000D01*
X113750000Y-67250000D02*
X115250000Y-67250000D01*
%TO.N,Net-(LED1-A)*%
X121642136Y-97357864D02*
X124112136Y-97357864D01*
X120642136Y-94495364D02*
X120642136Y-96357864D01*
X120642136Y-96357864D02*
X121642136Y-97357864D01*
%TO.N,Net-(LED2-A)*%
X128612136Y-89357864D02*
X126467136Y-89357864D01*
%TO.N,Net-(LED3-A)*%
X131142136Y-79857864D02*
X133377136Y-79857864D01*
%TO.N,Net-(LED4-A)*%
X137377136Y-70357864D02*
X135142136Y-70357864D01*
D35*
%TO.N,Net-(LED5-A)*%
X142467136Y-96357864D02*
X144877136Y-96357864D01*
D34*
%TO.N,Net-(LED6-A)*%
X148642136Y-83857864D02*
X150877136Y-83857864D01*
%TO.N,Net-(LED7-A)*%
X157877136Y-70357864D02*
X155642136Y-70357864D01*
%TO.N,Net-(LED8-A)*%
X164877136Y-97357864D02*
X162967136Y-97357864D01*
%TO.N,Net-(LED9-A)*%
X169142136Y-83857864D02*
X171377136Y-83857864D01*
%TO.N,Net-(LED10-A)*%
X177377136Y-70357864D02*
X174967136Y-70357864D01*
%TO.N,IR RECEIVER*%
X111876067Y-84876067D02*
X112828427Y-85828427D01*
X118500000Y-119500000D02*
X126000000Y-127000000D01*
X112828427Y-85828427D02*
X112828427Y-97828427D01*
X107876067Y-84876067D02*
X111876067Y-84876067D01*
X118500000Y-103500000D02*
X118500000Y-119500000D01*
X126000000Y-127000000D02*
X145920000Y-127000000D01*
X112828427Y-97828427D02*
X118500000Y-103500000D01*
X106342136Y-83342136D02*
X107876067Y-84876067D01*
X106342136Y-80857864D02*
X106342136Y-83342136D01*
D36*
%TO.N,Net-(U1-EN)*%
X103250000Y-59250000D02*
X105500000Y-57000000D01*
X97842136Y-66857864D02*
X97842136Y-64657864D01*
X105500000Y-57000000D02*
X107025000Y-57000000D01*
X97842136Y-64657864D02*
X103250000Y-59250000D01*
X104000000Y-60000000D02*
X103250000Y-59250000D01*
X106537500Y-60000000D02*
X104000000Y-60000000D01*
D34*
%TO.N,Net-(J3-Pin_2)*%
X111000000Y-103500000D02*
X105500000Y-103500000D01*
X104460000Y-104540000D02*
X104460000Y-107000000D01*
X100392136Y-83107864D02*
X102784272Y-85500000D01*
X111500000Y-85500000D02*
X112000000Y-86000000D01*
X102784272Y-85500000D02*
X111500000Y-85500000D01*
X112000000Y-102500000D02*
X111000000Y-103500000D01*
X112000000Y-86000000D02*
X112000000Y-102500000D01*
X105500000Y-103500000D02*
X104460000Y-104540000D01*
X100392136Y-80857864D02*
X100392136Y-83107864D01*
%TD*%
%TA.AperFunction,Conductor*%
%TO.N,GND*%
G36*
X169199538Y-64715230D02*
G01*
X169202483Y-64720178D01*
X169412757Y-65429513D01*
X169411822Y-65438419D01*
X169406039Y-65443638D01*
X169004500Y-65610928D01*
X168995545Y-65610947D01*
X168995500Y-65610928D01*
X168593960Y-65443638D01*
X168587641Y-65437293D01*
X168587243Y-65429513D01*
X168797518Y-64720178D01*
X168803154Y-64713220D01*
X168808735Y-64711803D01*
X169191265Y-64711803D01*
X169199538Y-64715230D01*
G37*
%TD.AperFunction*%
%TD*%
%TA.AperFunction,Conductor*%
%TO.N,GND*%
G36*
X168826424Y-65200117D02*
G01*
X168831962Y-65206067D01*
X168999125Y-65607303D01*
X168999144Y-65616258D01*
X168999125Y-65616303D01*
X168831724Y-66018110D01*
X168825379Y-66024429D01*
X168817912Y-66024916D01*
X168113277Y-65837187D01*
X168106165Y-65831745D01*
X168104589Y-65825881D01*
X168104589Y-65443331D01*
X168108016Y-65435058D01*
X168112620Y-65432221D01*
X168817495Y-65199457D01*
X168826424Y-65200117D01*
G37*
%TD.AperFunction*%
%TD*%
%TA.AperFunction,Conductor*%
%TO.N,GND*%
G36*
X116326228Y-106588472D02*
G01*
X116332094Y-106594581D01*
X116499125Y-106995500D01*
X116499144Y-107004455D01*
X116499125Y-107004500D01*
X116332094Y-107405418D01*
X116325749Y-107411737D01*
X116317281Y-107411908D01*
X115607687Y-107152806D01*
X115601091Y-107146750D01*
X115600000Y-107141816D01*
X115600000Y-106858183D01*
X115603427Y-106849910D01*
X115607687Y-106847193D01*
X116317283Y-106588091D01*
X116326228Y-106588472D01*
G37*
%TD.AperFunction*%
%TD*%
%TA.AperFunction,Conductor*%
%TO.N,GND*%
G36*
X148866649Y-119168418D02*
G01*
X148872968Y-119174763D01*
X148873557Y-119181816D01*
X148712073Y-119890898D01*
X148706895Y-119898204D01*
X148700665Y-119900000D01*
X148219335Y-119900000D01*
X148211062Y-119896573D01*
X148207927Y-119890898D01*
X148046442Y-119181816D01*
X148047946Y-119172988D01*
X148053349Y-119168418D01*
X148455501Y-119000873D01*
X148464452Y-119000855D01*
X148866649Y-119168418D01*
G37*
%TD.AperFunction*%
%TD*%
%TA.AperFunction,Conductor*%
%TO.N,GND*%
G36*
X169887380Y-65432221D02*
G01*
X169894161Y-65438069D01*
X169895411Y-65443331D01*
X169895411Y-65825881D01*
X169891984Y-65834154D01*
X169886723Y-65837187D01*
X169182087Y-66024916D01*
X169173211Y-66023734D01*
X169168276Y-66018111D01*
X169000873Y-65616301D01*
X169000855Y-65607350D01*
X169168038Y-65206065D01*
X169174382Y-65199748D01*
X169182504Y-65199457D01*
X169887380Y-65432221D01*
G37*
%TD.AperFunction*%
%TD*%
%TA.AperFunction,Conductor*%
%TO.N,+3.3V*%
G36*
X98501150Y-83228359D02*
G01*
X98771640Y-83498849D01*
X98775067Y-83507122D01*
X98773650Y-83512703D01*
X98420761Y-84162966D01*
X98413803Y-84168602D01*
X98406023Y-84168204D01*
X98003800Y-84002563D01*
X97997455Y-83996244D01*
X97831795Y-83593974D01*
X97831814Y-83585021D01*
X97837031Y-83579240D01*
X98487297Y-83226348D01*
X98496202Y-83225415D01*
X98501150Y-83228359D01*
G37*
%TD.AperFunction*%
%TD*%
%TA.AperFunction,Conductor*%
%TO.N,+3.3V*%
G36*
X111567901Y-59588472D02*
G01*
X111573767Y-59594581D01*
X111740798Y-59995500D01*
X111740817Y-60004455D01*
X111740798Y-60004500D01*
X111573767Y-60405418D01*
X111567422Y-60411737D01*
X111558954Y-60411908D01*
X110849360Y-60152806D01*
X110842764Y-60146750D01*
X110841673Y-60141816D01*
X110841673Y-59858183D01*
X110845100Y-59849910D01*
X110849360Y-59847193D01*
X111558956Y-59588091D01*
X111567901Y-59588472D01*
G37*
%TD.AperFunction*%
%TD*%
%TA.AperFunction,Conductor*%
%TO.N,+3.3V*%
G36*
X179690093Y-61190081D02*
G01*
X179690546Y-61190508D01*
X180000707Y-61499293D01*
X180000744Y-61499330D01*
X180309491Y-61809453D01*
X180312899Y-61817734D01*
X180309454Y-61826000D01*
X180309003Y-61826424D01*
X179654694Y-62411858D01*
X179646245Y-62414821D01*
X179638621Y-62411412D01*
X179088587Y-61861378D01*
X179085160Y-61853105D01*
X179088139Y-61845308D01*
X179673575Y-61190996D01*
X179681642Y-61187118D01*
X179690093Y-61190081D01*
G37*
%TD.AperFunction*%
%TD*%
M02*
