%TF.GenerationSoftware,KiCad,Pcbnew,8.0.6*%
%TF.CreationDate,2025-01-12T15:08:07+00:00*%
%TF.ProjectId,smart-fan,736d6172-742d-4666-916e-2e6b69636164,rev?*%
%TF.SameCoordinates,Original*%
%TF.FileFunction,Legend,Bot*%
%TF.FilePolarity,Positive*%
%FSLAX46Y46*%
G04 Gerber Fmt 4.6, Leading zero omitted, Abs format (unit mm)*
G04 Created by KiCad (PCBNEW 8.0.6) date 2025-01-12 15:08:07*
%MOMM*%
%LPD*%
G01*
G04 APERTURE LIST*
%ADD10C,0.150000*%
%ADD11C,0.120000*%
G04 APERTURE END LIST*
D10*
X180404040Y-75814683D02*
X179832612Y-75814683D01*
X180118326Y-76814683D02*
X180118326Y-75814683D01*
X179499278Y-76814683D02*
X179499278Y-75814683D01*
X179499278Y-75814683D02*
X179118326Y-75814683D01*
X179118326Y-75814683D02*
X179023088Y-75862302D01*
X179023088Y-75862302D02*
X178975469Y-75909921D01*
X178975469Y-75909921D02*
X178927850Y-76005159D01*
X178927850Y-76005159D02*
X178927850Y-76148016D01*
X178927850Y-76148016D02*
X178975469Y-76243254D01*
X178975469Y-76243254D02*
X179023088Y-76290873D01*
X179023088Y-76290873D02*
X179118326Y-76338492D01*
X179118326Y-76338492D02*
X179499278Y-76338492D01*
X178594516Y-75814683D02*
X177975469Y-75814683D01*
X177975469Y-75814683D02*
X178308802Y-76195635D01*
X178308802Y-76195635D02*
X178165945Y-76195635D01*
X178165945Y-76195635D02*
X178070707Y-76243254D01*
X178070707Y-76243254D02*
X178023088Y-76290873D01*
X178023088Y-76290873D02*
X177975469Y-76386111D01*
X177975469Y-76386111D02*
X177975469Y-76624206D01*
X177975469Y-76624206D02*
X178023088Y-76719444D01*
X178023088Y-76719444D02*
X178070707Y-76767064D01*
X178070707Y-76767064D02*
X178165945Y-76814683D01*
X178165945Y-76814683D02*
X178451659Y-76814683D01*
X178451659Y-76814683D02*
X178546897Y-76767064D01*
X178546897Y-76767064D02*
X178594516Y-76719444D01*
X179904040Y-79910302D02*
X179999278Y-79862683D01*
X179999278Y-79862683D02*
X180142135Y-79862683D01*
X180142135Y-79862683D02*
X180284992Y-79910302D01*
X180284992Y-79910302D02*
X180380230Y-80005540D01*
X180380230Y-80005540D02*
X180427849Y-80100778D01*
X180427849Y-80100778D02*
X180475468Y-80291254D01*
X180475468Y-80291254D02*
X180475468Y-80434111D01*
X180475468Y-80434111D02*
X180427849Y-80624587D01*
X180427849Y-80624587D02*
X180380230Y-80719825D01*
X180380230Y-80719825D02*
X180284992Y-80815064D01*
X180284992Y-80815064D02*
X180142135Y-80862683D01*
X180142135Y-80862683D02*
X180046897Y-80862683D01*
X180046897Y-80862683D02*
X179904040Y-80815064D01*
X179904040Y-80815064D02*
X179856421Y-80767444D01*
X179856421Y-80767444D02*
X179856421Y-80434111D01*
X179856421Y-80434111D02*
X180046897Y-80434111D01*
X179427849Y-80862683D02*
X179427849Y-79862683D01*
X179427849Y-79862683D02*
X178856421Y-80862683D01*
X178856421Y-80862683D02*
X178856421Y-79862683D01*
X178380230Y-80862683D02*
X178380230Y-79862683D01*
X178380230Y-79862683D02*
X178142135Y-79862683D01*
X178142135Y-79862683D02*
X177999278Y-79910302D01*
X177999278Y-79910302D02*
X177904040Y-80005540D01*
X177904040Y-80005540D02*
X177856421Y-80100778D01*
X177856421Y-80100778D02*
X177808802Y-80291254D01*
X177808802Y-80291254D02*
X177808802Y-80434111D01*
X177808802Y-80434111D02*
X177856421Y-80624587D01*
X177856421Y-80624587D02*
X177904040Y-80719825D01*
X177904040Y-80719825D02*
X177999278Y-80815064D01*
X177999278Y-80815064D02*
X178142135Y-80862683D01*
X178142135Y-80862683D02*
X178380230Y-80862683D01*
X186404040Y-75814683D02*
X185832612Y-75814683D01*
X186118326Y-76814683D02*
X186118326Y-75814683D01*
X185499278Y-76814683D02*
X185499278Y-75814683D01*
X185499278Y-75814683D02*
X185118326Y-75814683D01*
X185118326Y-75814683D02*
X185023088Y-75862302D01*
X185023088Y-75862302D02*
X184975469Y-75909921D01*
X184975469Y-75909921D02*
X184927850Y-76005159D01*
X184927850Y-76005159D02*
X184927850Y-76148016D01*
X184927850Y-76148016D02*
X184975469Y-76243254D01*
X184975469Y-76243254D02*
X185023088Y-76290873D01*
X185023088Y-76290873D02*
X185118326Y-76338492D01*
X185118326Y-76338492D02*
X185499278Y-76338492D01*
X183975469Y-76814683D02*
X184546897Y-76814683D01*
X184261183Y-76814683D02*
X184261183Y-75814683D01*
X184261183Y-75814683D02*
X184356421Y-75957540D01*
X184356421Y-75957540D02*
X184451659Y-76052778D01*
X184451659Y-76052778D02*
X184546897Y-76100397D01*
X186618325Y-79862683D02*
X185999278Y-79862683D01*
X185999278Y-79862683D02*
X186332611Y-80243635D01*
X186332611Y-80243635D02*
X186189754Y-80243635D01*
X186189754Y-80243635D02*
X186094516Y-80291254D01*
X186094516Y-80291254D02*
X186046897Y-80338873D01*
X186046897Y-80338873D02*
X185999278Y-80434111D01*
X185999278Y-80434111D02*
X185999278Y-80672206D01*
X185999278Y-80672206D02*
X186046897Y-80767444D01*
X186046897Y-80767444D02*
X186094516Y-80815064D01*
X186094516Y-80815064D02*
X186189754Y-80862683D01*
X186189754Y-80862683D02*
X186475468Y-80862683D01*
X186475468Y-80862683D02*
X186570706Y-80815064D01*
X186570706Y-80815064D02*
X186618325Y-80767444D01*
X185570706Y-80767444D02*
X185523087Y-80815064D01*
X185523087Y-80815064D02*
X185570706Y-80862683D01*
X185570706Y-80862683D02*
X185618325Y-80815064D01*
X185618325Y-80815064D02*
X185570706Y-80767444D01*
X185570706Y-80767444D02*
X185570706Y-80862683D01*
X185189754Y-79862683D02*
X184570707Y-79862683D01*
X184570707Y-79862683D02*
X184904040Y-80243635D01*
X184904040Y-80243635D02*
X184761183Y-80243635D01*
X184761183Y-80243635D02*
X184665945Y-80291254D01*
X184665945Y-80291254D02*
X184618326Y-80338873D01*
X184618326Y-80338873D02*
X184570707Y-80434111D01*
X184570707Y-80434111D02*
X184570707Y-80672206D01*
X184570707Y-80672206D02*
X184618326Y-80767444D01*
X184618326Y-80767444D02*
X184665945Y-80815064D01*
X184665945Y-80815064D02*
X184761183Y-80862683D01*
X184761183Y-80862683D02*
X185046897Y-80862683D01*
X185046897Y-80862683D02*
X185142135Y-80815064D01*
X185142135Y-80815064D02*
X185189754Y-80767444D01*
X184284992Y-79862683D02*
X183951659Y-80862683D01*
X183951659Y-80862683D02*
X183618326Y-79862683D01*
D11*
%TO.C,TP3*%
X180342136Y-78357864D02*
G75*
G02*
X177942136Y-78357864I-1200000J0D01*
G01*
X177942136Y-78357864D02*
G75*
G02*
X180342136Y-78357864I1200000J0D01*
G01*
%TO.C,TP1*%
X186342136Y-78357864D02*
G75*
G02*
X183942136Y-78357864I-1200000J0D01*
G01*
X183942136Y-78357864D02*
G75*
G02*
X186342136Y-78357864I1200000J0D01*
G01*
%TD*%
M02*
